<svg width="48" height="32" viewBox="0 0 48 32" fill="none" xmlns="http://www.w3.org/2000/svg">
<g clip-path="url(#clip0_843_100350)">
<path d="M44 0H4C1.79086 0 0 1.79086 0 4V28C0 30.2091 1.79086 32 4 32H44C46.2091 32 48 30.2091 48 28V4C48 1.79086 46.2091 0 44 0Z" fill="#F7F7F7"/>
<path d="M0 4C0 1.79086 1.79086 0 4 0H44C46.2091 0 48 1.79086 48 4V28C48 30.2091 46.2091 32 44 32H4C1.79086 32 0 30.2091 0 28V4Z" fill="#F7F7F7"/>
<path d="M8.38489 11.2825C8.05387 9.5669 6.68863 6.76177 10.0689 4.02C10.1319 3.96887 10.2277 4.02268 10.2187 4.10334C9.79717 7.89113 13.1622 7.89978 11.3529 12.5722C11.2078 12.947 11.4616 13.4083 11.8286 13.2445C12.6568 12.8751 12.5665 11.4907 12.5124 10.1039C12.5093 10.0252 12.6043 9.98446 12.6622 10.0379C15.158 12.3412 12.8089 14.0584 12.5615 15.789C12.4721 16.4147 13.1254 16.5582 13.3253 15.9585C13.523 15.3655 13.7724 14.6379 14.7412 14.1692C14.8095 14.1362 14.8819 14.2007 14.8609 14.2736C14.6724 14.9292 14.5488 15.4545 14.4875 16.0928C14.3894 17.1136 14.732 18.1203 15.1109 19.0732C19.4482 29.98 2.41881 31.6065 5.09631 19.9582C5.42827 18.514 5.93072 16.9994 5.45463 15.5961C5.29771 15.1336 5.07886 14.6885 4.79243 14.1637C4.75299 14.0914 4.82229 14.0085 4.8994 14.0374C5.88743 14.4072 6.38343 14.9108 6.77444 16.0717C6.90584 16.4618 7.42011 16.6271 7.48449 16.2206C7.72966 14.6724 3.875 12.0302 7.21954 8.84937C7.27846 8.79334 7.37736 8.83665 7.37042 8.91766C7.27543 10.0253 7.14237 10.8247 7.3235 11.4819C7.54456 12.2838 8.54249 12.0993 8.38489 11.2825Z" fill="url(#paint0_linear_843_100350)"/>
<path d="M9.06842 12.1661C9.16419 10.5767 7.5551 8.3555 9.3995 6.38506C9.43511 6.34701 9.50032 6.37112 9.50478 6.42303C9.72773 9.01515 12.2424 8.7984 10.784 12.9942C10.6481 13.3853 10.5497 13.8211 10.746 14.1856C10.9498 14.5638 11.375 14.9332 12.2545 14.6541C12.3366 14.628 12.4183 14.7185 12.3798 14.7956C11.8657 15.8254 11.6669 17.1416 12.5046 17.4209C12.8797 17.5459 12.9433 17.3595 13.5574 17.1203C13.7634 17.04 13.9665 17.2224 13.9696 17.4434C13.9776 18.02 14.2191 18.3806 14.4608 19.2263C17.9217 31.7155 1.67086 28.2547 6.18511 19.2265C6.18511 19.2265 6.4493 18.2736 6.23676 17.3423C6.17243 17.0604 6.44204 16.7779 6.65277 16.9759C7.00808 17.3096 7.13875 17.6212 7.53933 17.4209C9.65214 16.3645 6.08186 13.6567 7.00287 12.8202C7.04386 12.7829 7.10743 12.8024 7.13214 12.852C7.16087 12.9096 7.19108 12.9621 7.22246 13.0097C7.7318 13.7831 9.01273 13.0905 9.06842 12.1661Z" fill="url(#paint1_linear_843_100350)"/>
<path d="M12.3542 25.8611C11.7253 26.0874 11.0846 26.2006 10.4322 26.2006C9.78266 26.2006 9.20664 26.1124 8.7041 25.9361C8.20449 25.7627 7.77541 25.5085 7.41687 25.1734C6.66158 24.4681 6.28394 23.4939 6.28394 22.2507C6.28394 20.8371 6.6557 19.7777 7.39924 19.0723C8.08399 18.4229 9.04207 18.0981 10.2735 18.0981C11.2933 18.0981 12.1397 18.392 12.8127 18.9798C13.5415 19.6204 13.9059 20.5094 13.9059 21.6468C13.9059 22.4697 13.756 23.125 13.4563 23.6129C13.1771 24.0655 12.7921 24.3285 12.3013 24.402C12.2396 24.4108 12.1705 24.4152 12.0941 24.4152C12.0206 24.4152 11.9398 24.4049 11.8517 24.3843C11.7664 24.3638 11.6871 24.33 11.6136 24.283C11.452 24.186 11.3374 24.0434 11.2698 23.8554C10.9288 24.1963 10.5262 24.3667 10.0619 24.3667C9.95605 24.3667 9.80617 24.3506 9.61221 24.3182C9.41824 24.283 9.22868 24.1933 9.04353 24.0493C8.85839 23.9024 8.70997 23.729 8.5983 23.5291C8.38964 23.15 8.29559 22.7033 8.31616 22.189C8.36906 20.8136 8.92892 20.1259 9.99573 20.1259C10.4072 20.1259 10.8216 20.2494 11.2389 20.4962L11.2698 20.1259L11.8428 20.2141C11.8223 20.3463 11.812 20.5183 11.812 20.7299V23.4233C11.812 23.5585 11.8443 23.6614 11.909 23.7319C11.9736 23.7995 12.0471 23.8333 12.1294 23.8333C12.2117 23.8333 12.3013 23.8157 12.3983 23.7804C12.4982 23.7451 12.604 23.6731 12.7157 23.5644C12.8274 23.4527 12.9214 23.3087 12.9978 23.1324C13.1595 22.7592 13.2403 22.2963 13.2403 21.7438C13.2403 21.1883 13.1609 20.7269 13.0022 20.3596C12.8465 19.9893 12.6334 19.6807 12.363 19.4338C11.8281 18.946 11.1287 18.702 10.2647 18.702C8.64532 18.702 7.61524 19.3486 7.17441 20.6417C7.02159 21.0913 6.94518 21.6042 6.94518 22.1802C6.94518 22.7562 7.02453 23.2514 7.18323 23.6658C7.34487 24.0802 7.5741 24.4299 7.87093 24.715C8.47927 25.3027 9.31244 25.5966 10.3705 25.5966C10.9259 25.5966 11.4916 25.5026 12.0677 25.3145L12.3542 25.8611ZM9.19783 21.1795C9.12141 21.3206 9.06705 21.4807 9.03472 21.66C9.00239 21.8393 8.98329 22.0303 8.97741 22.2331C8.97153 22.4359 8.98917 22.6343 9.03031 22.8282C9.07145 23.0222 9.13905 23.1926 9.23309 23.3396C9.43587 23.6629 9.74152 23.8245 10.15 23.8245C10.3734 23.8245 10.5806 23.7775 10.7716 23.6834C10.9626 23.5864 11.1081 23.4997 11.208 23.4233V20.9062C10.7231 20.7387 10.3514 20.6623 10.0927 20.677C9.83409 20.6887 9.63866 20.7401 9.50641 20.8313C9.3771 20.9224 9.27424 21.0384 9.19783 21.1795Z" fill="#9E1D22"/>
<path d="M21.6003 17.9702C22.0861 17.9702 22.4762 18.1395 22.7706 18.4781C23.0699 18.8167 23.2196 19.327 23.2196 20.0091C23.2196 20.4557 23.1509 20.8335 23.0135 21.1427C22.881 21.4469 22.6921 21.6776 22.4467 21.8346C22.2063 21.9867 21.9217 22.0628 21.5929 22.0628C21.3917 22.0628 21.2126 22.0358 21.0556 21.9818C20.8985 21.9278 20.7636 21.8591 20.6507 21.7757C20.5428 21.6874 20.4495 21.5917 20.371 21.4886H20.3268C20.3367 21.5721 20.3465 21.6776 20.3563 21.8052C20.3661 21.9327 20.371 22.0431 20.371 22.1364V23.7557H19.7233V18.0438H20.2532L20.3416 18.5812H20.371C20.4495 18.4683 20.5428 18.3652 20.6507 18.272C20.7636 18.1788 20.8961 18.1052 21.0482 18.0512C21.2052 17.9972 21.3892 17.9702 21.6003 17.9702ZM21.4825 18.5149C21.2175 18.5149 21.004 18.5664 20.8421 18.6695C20.6802 18.7676 20.5624 18.9173 20.4888 19.1185C20.4152 19.3197 20.3759 19.5749 20.371 19.884V20.0091C20.371 20.333 20.4054 20.6078 20.4741 20.8335C20.5428 21.0593 20.6581 21.231 20.82 21.3488C20.9869 21.4666 21.2126 21.5254 21.4972 21.5254C21.7377 21.5254 21.9339 21.4592 22.0861 21.3267C22.2431 21.1942 22.3584 21.0151 22.432 20.7894C22.5105 20.5587 22.5498 20.2962 22.5498 20.0018C22.5498 19.5503 22.4615 19.1896 22.2848 18.9197C22.113 18.6499 21.8456 18.5149 21.4825 18.5149Z" fill="black"/>
<path d="M25.6725 17.9775C26.1534 17.9775 26.5091 18.083 26.7398 18.294C26.9704 18.505 27.0857 18.8411 27.0857 19.3024V21.9891H26.6146L26.4895 21.4297H26.4601C26.3472 21.572 26.2294 21.6922 26.1067 21.7903C25.989 21.8836 25.8516 21.9523 25.6945 21.9964C25.5424 22.0406 25.3559 22.0627 25.1351 22.0627C24.8996 22.0627 24.6861 22.021 24.4947 21.9375C24.3083 21.8541 24.1611 21.7265 24.0531 21.5548C23.9451 21.3781 23.8912 21.1573 23.8912 20.8923C23.8912 20.4998 24.0457 20.198 24.3549 19.987C24.664 19.771 25.14 19.6533 25.7829 19.6336L26.4527 19.6116V19.376C26.4527 19.0472 26.3815 18.8191 26.2392 18.6915C26.0969 18.5639 25.8957 18.5001 25.6357 18.5001C25.4296 18.5001 25.2333 18.532 25.0468 18.5958C24.8603 18.6547 24.6861 18.7234 24.5242 18.8019L24.3254 18.3161C24.4972 18.2228 24.7008 18.1443 24.9364 18.0805C25.1719 18.0118 25.4173 17.9775 25.6725 17.9775ZM25.8638 20.0826C25.3731 20.1023 25.0321 20.1808 24.8407 20.3182C24.6542 20.4556 24.561 20.6494 24.561 20.8997C24.561 21.1205 24.6272 21.2824 24.7597 21.3855C24.8971 21.4885 25.0713 21.5401 25.2823 21.5401C25.616 21.5401 25.8933 21.4493 26.1141 21.2677C26.3349 21.0812 26.4453 20.7966 26.4453 20.4139V20.0606L25.8638 20.0826Z" fill="black"/>
<path d="M27.6124 18.0438H28.3043L29.1581 20.2888C29.2072 20.4213 29.2513 20.5489 29.2906 20.6716C29.3348 20.7943 29.374 20.9145 29.4084 21.0323C29.4427 21.1451 29.4697 21.2556 29.4893 21.3635H29.5188C29.5482 21.2408 29.5948 21.0813 29.6586 20.8851C29.7224 20.6839 29.7887 20.4827 29.8574 20.2815L30.6597 18.0438H31.359L29.6586 22.5339C29.5654 22.7792 29.455 22.9927 29.3274 23.1742C29.2047 23.3607 29.0526 23.503 28.871 23.6012C28.6944 23.7042 28.4785 23.7557 28.2233 23.7557C28.1055 23.7557 28.0025 23.7484 27.9141 23.7337C27.8258 23.7238 27.7498 23.7116 27.686 23.6969V23.1816C27.7399 23.1914 27.8037 23.2012 27.8773 23.2111C27.9559 23.2209 28.0368 23.2258 28.1202 23.2258C28.2724 23.2258 28.4024 23.1963 28.5104 23.1374C28.6232 23.0835 28.7189 23.0025 28.7974 22.8945C28.8759 22.7915 28.9422 22.6688 28.9962 22.5265L29.2023 22.0039L27.6124 18.0438Z" fill="black"/>
<path d="M21.1218 14.6673C20.6311 14.6673 20.2385 14.498 19.9441 14.1594C19.6497 13.8159 19.5024 13.3055 19.5024 12.6283C19.5024 11.9512 19.6497 11.4408 19.9441 11.0973C20.2434 10.7489 20.6384 10.5747 21.1292 10.5747C21.3353 10.5747 21.5144 10.6017 21.6665 10.6557C21.8186 10.7047 21.9511 10.7734 22.064 10.8618C22.1768 10.9501 22.2725 11.0482 22.351 11.1562H22.3952C22.3903 11.0924 22.3805 10.9992 22.3658 10.8765C22.3559 10.7489 22.351 10.6483 22.351 10.5747V8.99951H22.9988V14.5937H22.4762L22.3805 14.0637H22.351C22.2725 14.1766 22.1768 14.2796 22.064 14.3728C21.9511 14.4612 21.8162 14.5323 21.6591 14.5863C21.507 14.6403 21.3279 14.6673 21.1218 14.6673ZM21.2249 14.1299C21.642 14.1299 21.9339 14.0171 22.1008 13.7913C22.2725 13.5607 22.3584 13.2148 22.3584 12.7535V12.6357C22.3584 12.145 22.2774 11.7696 22.1155 11.5095C21.9536 11.2445 21.6542 11.112 21.2175 11.112C20.8691 11.112 20.6066 11.2519 20.4299 11.5316C20.2581 11.8064 20.1723 12.1769 20.1723 12.6431C20.1723 13.1142 20.2581 13.4797 20.4299 13.7398C20.6066 13.9999 20.8715 14.1299 21.2249 14.1299Z" fill="#9E1D22"/>
<path d="M26.0184 10.5747C26.092 10.5747 26.1705 10.5796 26.254 10.5894C26.3423 10.5943 26.4183 10.6041 26.4821 10.6189L26.4012 11.2151C26.3374 11.2004 26.2662 11.1881 26.1877 11.1783C26.1141 11.1685 26.0429 11.1636 25.9742 11.1636C25.8221 11.1636 25.6774 11.1955 25.54 11.2593C25.4026 11.323 25.2799 11.4138 25.1719 11.5316C25.064 11.6445 24.9781 11.7819 24.9143 11.9438C24.8554 12.1057 24.826 12.2873 24.826 12.4885V14.5937H24.1782V10.6483H24.7082L24.7818 11.3697H24.8113C24.8947 11.2225 24.9953 11.09 25.113 10.9722C25.2308 10.8495 25.3658 10.7538 25.5179 10.6851C25.67 10.6115 25.8368 10.5747 26.0184 10.5747Z" fill="#9E1D22"/>
<path d="M28.4957 10.5822C28.9766 10.5822 29.3324 10.6877 29.563 10.8987C29.7936 11.1097 29.909 11.4458 29.909 11.9071V14.5938H29.4379L29.3127 14.0343H29.2833C29.1704 14.1767 29.0527 14.2969 28.93 14.395C28.8122 14.4883 28.6748 14.557 28.5178 14.6011C28.3657 14.6453 28.1792 14.6674 27.9584 14.6674C27.7228 14.6674 27.5094 14.6257 27.318 14.5422C27.1315 14.4588 26.9843 14.3312 26.8763 14.1595C26.7684 13.9828 26.7144 13.762 26.7144 13.497C26.7144 13.1044 26.869 12.8027 27.1781 12.5916C27.4873 12.3757 27.9633 12.258 28.6061 12.2383L29.2759 12.2162V11.9807C29.2759 11.6519 29.2048 11.4237 29.0625 11.2962C28.9202 11.1686 28.719 11.1048 28.4589 11.1048C28.2528 11.1048 28.0565 11.1367 27.87 11.2005C27.6836 11.2594 27.5094 11.3281 27.3474 11.4066L27.1487 10.9208C27.3204 10.8275 27.5241 10.749 27.7596 10.6852C27.9952 10.6165 28.2405 10.5822 28.4957 10.5822ZM28.6871 12.6873C28.1964 12.707 27.8553 12.7855 27.6639 12.9229C27.4775 13.0603 27.3842 13.2541 27.3842 13.5044C27.3842 13.7252 27.4505 13.8871 27.583 13.9902C27.7204 14.0932 27.8946 14.1448 28.1056 14.1448C28.4393 14.1448 28.7165 14.054 28.9373 13.8724C29.1582 13.6859 29.2686 13.4013 29.2686 13.0186V12.6653L28.6871 12.6873Z" fill="#9E1D22"/>
<path d="M32.4524 10.5747C32.7125 10.5747 32.9456 10.6238 33.1517 10.7219C33.3627 10.8201 33.5418 10.9697 33.689 11.1709H33.7258L33.8142 10.6483H34.3294V14.6599C34.3294 15.0329 34.2656 15.3445 34.138 15.5947C34.0105 15.8499 33.8166 16.0413 33.5565 16.1689C33.2965 16.2964 32.9652 16.3602 32.5628 16.3602C32.2782 16.3602 32.0157 16.3382 31.7752 16.294C31.5397 16.2547 31.3287 16.1934 31.1422 16.11V15.5138C31.2698 15.5775 31.4097 15.6315 31.5618 15.6757C31.7139 15.7248 31.8783 15.7616 32.055 15.7861C32.2316 15.8106 32.4132 15.8229 32.5996 15.8229C32.9382 15.8229 33.2032 15.7223 33.3946 15.5211C33.5909 15.3248 33.689 15.0549 33.689 14.7114V14.5569C33.689 14.498 33.6915 14.4146 33.6964 14.3066C33.7013 14.1937 33.7062 14.1152 33.7111 14.0711H33.6817C33.5443 14.2722 33.3725 14.4219 33.1664 14.5201C32.9652 14.6182 32.7297 14.6673 32.4598 14.6673C31.9494 14.6673 31.5495 14.4882 31.26 14.1299C30.9754 13.7717 30.8331 13.2712 30.8331 12.6283C30.8331 12.2063 30.8969 11.8432 31.0245 11.539C31.1569 11.2298 31.3434 10.9918 31.5839 10.825C31.8243 10.6581 32.1138 10.5747 32.4524 10.5747ZM32.5408 11.1194C32.3199 11.1194 32.131 11.1783 31.974 11.2961C31.8219 11.4138 31.7041 11.5856 31.6207 11.8113C31.5422 12.037 31.5029 12.3118 31.5029 12.6357C31.5029 13.1215 31.5912 13.4945 31.7679 13.7545C31.9494 14.0097 32.212 14.1373 32.5555 14.1373C32.7567 14.1373 32.9284 14.1128 33.0707 14.0637C33.213 14.0097 33.3308 13.9287 33.424 13.8208C33.5173 13.7079 33.586 13.5656 33.6301 13.3939C33.6743 13.2221 33.6964 13.0185 33.6964 12.7829V12.6283C33.6964 12.2701 33.6547 11.9806 33.5713 11.7598C33.4927 11.539 33.3676 11.377 33.1959 11.274C33.0241 11.1709 32.8057 11.1194 32.5408 11.1194Z" fill="#9E1D22"/>
<path d="M38.939 12.6136C38.939 12.9424 38.8948 13.2344 38.8065 13.4896C38.723 13.7398 38.6004 13.9533 38.4384 14.1299C38.2814 14.3066 38.0876 14.4415 37.8569 14.5348C37.6312 14.6231 37.3785 14.6673 37.0988 14.6673C36.8387 14.6673 36.5982 14.6231 36.3774 14.5348C36.1566 14.4415 35.9652 14.3066 35.8033 14.1299C35.6413 13.9533 35.5138 13.7398 35.4205 13.4896C35.3322 13.2344 35.288 12.9424 35.288 12.6136C35.288 12.1769 35.3616 11.8089 35.5089 11.5095C35.6561 11.2053 35.8671 10.9746 36.1419 10.8176C36.4167 10.6557 36.743 10.5747 37.1209 10.5747C37.4791 10.5747 37.7931 10.6557 38.063 10.8176C38.3378 10.9746 38.5513 11.2053 38.7034 11.5095C38.8604 11.8089 38.939 12.1769 38.939 12.6136ZM35.9579 12.6136C35.9579 12.9228 35.9971 13.1927 36.0756 13.4233C36.1591 13.649 36.2866 13.8232 36.4584 13.9459C36.6301 14.0686 36.8485 14.1299 37.1135 14.1299C37.3785 14.1299 37.5969 14.0686 37.7686 13.9459C37.9404 13.8232 38.0655 13.649 38.144 13.4233C38.2274 13.1927 38.2691 12.9228 38.2691 12.6136C38.2691 12.2996 38.2274 12.0321 38.144 11.8113C38.0606 11.5905 37.933 11.4212 37.7612 11.3034C37.5944 11.1807 37.376 11.1194 37.1061 11.1194C36.7037 11.1194 36.4118 11.2519 36.2302 11.5169C36.0486 11.7819 35.9579 12.1474 35.9579 12.6136Z" fill="#9E1D22"/>
<path d="M41.7909 10.5747C42.262 10.5747 42.6178 10.69 42.8582 10.9207C43.0987 11.1464 43.2189 11.5144 43.2189 12.0248V14.5937H42.5785V12.0689C42.5785 11.75 42.5074 11.512 42.365 11.3549C42.2227 11.1979 41.9995 11.1194 41.6952 11.1194C41.2585 11.1194 40.9567 11.2421 40.7898 11.4874C40.623 11.7328 40.5396 12.0861 40.5396 12.5474V14.5937H39.8918V10.6483H40.4145L40.5101 11.1856H40.5469C40.6353 11.0482 40.7432 10.9354 40.8708 10.8471C41.0033 10.7538 41.1481 10.6851 41.3051 10.641C41.4621 10.5968 41.6241 10.5747 41.7909 10.5747Z" fill="#9E1D22"/>
<path fill-rule="evenodd" clip-rule="evenodd" d="M44 1H4C2.34315 1 1 2.34315 1 4V28C1 29.6569 2.34315 31 4 31H44C45.6569 31 47 29.6569 47 28V4C47 2.34315 45.6569 1 44 1ZM4 0C1.79086 0 0 1.79086 0 4V28C0 30.2091 1.79086 32 4 32H44C46.2091 32 48 30.2091 48 28V4C48 1.79086 46.2091 0 44 0H4Z" fill="black" fill-opacity="0.1"/>
</g>
<defs>
<linearGradient id="paint0_linear_843_100350" x1="10.2511" y1="3.87855" x2="10.2511" y2="28" gradientUnits="userSpaceOnUse">
<stop stop-color="#9A2C29"/>
<stop offset="0.329698" stop-color="#C53E2F"/>
<stop offset="0.520205" stop-color="#E8633A"/>
<stop offset="1" stop-color="#FEE62D"/>
</linearGradient>
<linearGradient id="paint1_linear_843_100350" x1="10.1675" y1="6.28608" x2="10.1675" y2="27.347" gradientUnits="userSpaceOnUse">
<stop stop-color="#E13C37"/>
<stop offset="0.789356" stop-color="#FFEC34"/>
<stop offset="1" stop-color="#FFF8AB"/>
</linearGradient>
<clipPath id="clip0_843_100350">
<rect width="48" height="32" fill="white"/>
</clipPath>
</defs>
</svg>
