<svg width="48" height="32" viewBox="0 0 48 32" fill="none" xmlns="http://www.w3.org/2000/svg">
<path d="M0 4C0 1.79086 1.79086 0 4 0H44C46.2091 0 48 1.79086 48 4V28C48 30.2091 46.2091 32 44 32H4C1.79086 32 0 30.2091 0 28V4Z" fill="#ECA42C"/>
<rect y="7" width="48" height="18" fill="white"/>
<path d="M0 8.5H48V23.5H0V8.5Z" fill="#EC1B23"/>
<path fill-rule="evenodd" clip-rule="evenodd" d="M44 1H4C2.34315 1 1 2.34315 1 4V28C1 29.6569 2.34315 31 4 31H44C45.6569 31 47 29.6569 47 28V4C47 2.34315 45.6569 1 44 1ZM4 0C1.79086 0 0 1.79086 0 4V28C0 30.2091 1.79086 32 4 32H44C46.2091 32 48 30.2091 48 28V4C48 1.79086 46.2091 0 44 0H4Z" fill="black" fill-opacity="0.1"/>
<path fill-rule="evenodd" clip-rule="evenodd" d="M33.4838 20.9174C33.9309 21.439 33.8733 22.2235 33.3548 22.6742C32.8312 23.1294 32.0372 23.0711 31.5857 22.5443L27.8002 18.1279L24.2221 22.5012C23.7748 23.0479 22.964 23.1168 22.4309 22.6533C21.9217 22.2107 21.8546 21.4442 22.2791 20.9198L26.1232 16.1714L23.4048 13L25.2916 11.3599L27.7225 14.1958L29.9048 11.5C31.4048 9.5 33.9048 7 34.4048 7L37.9048 8C35.3561 8.4387 34.2006 10.0322 32.9424 11.7672C32.7665 12.0096 32.5887 12.2548 32.4048 12.5L29.4082 16.1625L33.4838 20.9174ZM13.05 9.32577C12.5316 9.77645 12.474 10.561 12.921 11.0826L16.9966 15.8374L14 19.5C12.5 21.5 11 23.5 8.5 24L12 25C12.5 25 15 22.5 16.5 20.5L18.6824 17.8042L21.1132 20.6401L23 19L20.2817 15.8286L24.1258 11.0802C24.5503 10.5558 24.4832 9.78931 23.974 9.34667C23.4408 8.88321 22.6301 8.95208 22.1827 9.49883L18.6046 13.8721L14.8191 9.45567C14.3677 8.92895 13.5736 8.87064 13.05 9.32577ZM10.5 16C10.5 18.2091 8.70914 20 6.5 20C4.29086 20 2.5 18.2091 2.5 16C2.5 13.7909 4.29086 12 6.5 12C8.70914 12 10.5 13.7909 10.5 16ZM13 16C13 19.5898 10.0899 22.5 6.5 22.5C2.91015 22.5 0 19.5898 0 16C0 12.4101 2.91015 9.5 6.5 9.5C10.0899 9.5 13 12.4101 13 16ZM44 16C44 18.2091 42.2091 20 40 20C37.7909 20 36 18.2091 36 16C36 13.7909 37.7909 12 40 12C42.2091 12 44 13.7909 44 16ZM46.5 16C46.5 19.5898 43.5899 22.5 40 22.5C36.4101 22.5 33.5 19.5898 33.5 16C33.5 12.4101 36.4101 9.5 40 9.5C43.5899 9.5 46.5 12.4101 46.5 16Z" fill="white"/>
</svg>
