<svg width="48" height="32" viewBox="0 0 48 32" fill="none" xmlns="http://www.w3.org/2000/svg">
<path d="M0 4C0 1.79086 1.79086 0 4 0H44C46.2091 0 48 1.79086 48 4V28C48 30.2091 46.2091 32 44 32H4C1.79086 32 0 30.2091 0 28V4Z" fill="#32BCAD"/>
<path d="M30.7168 22.3599C29.7752 22.3599 28.8896 21.9933 28.2237 21.3277L24.624 17.7279C24.3712 17.4745 23.9308 17.4752 23.6781 17.7279L20.0652 21.3409C19.3994 22.0064 18.5137 22.373 17.5722 22.373H16.8628L21.422 26.9321C22.8458 28.356 25.1543 28.356 26.5782 26.9321L31.1504 22.3599H30.7168Z" fill="white"/>
<path d="M17.5721 9.62691C18.5137 9.62691 19.3993 9.99354 20.0652 10.6591L23.6781 14.2726C23.9383 14.5329 24.3631 14.5339 24.624 14.2723L28.2237 10.6722C28.8895 10.0067 29.7752 9.64008 30.7167 9.64008H31.1503L26.5783 5.06793C25.1543 3.64402 22.8457 3.64402 21.4219 5.06793L16.8629 9.62693L17.5721 9.62691Z" fill="white"/>
<path d="M34.9322 13.4218L32.1693 10.6589C32.1084 10.6833 32.0425 10.6985 31.973 10.6985H30.7168C30.0673 10.6985 29.4315 10.9619 28.9726 11.4211L25.373 15.0209C25.0361 15.3577 24.5935 15.5263 24.1512 15.5263C23.7086 15.5263 23.2663 15.3577 22.9295 15.0212L19.3163 11.408C18.8574 10.9486 18.2216 10.6853 17.5721 10.6853H16.0275C15.9616 10.6853 15.9 10.6698 15.8419 10.6479L13.0679 13.4218C11.644 14.8458 11.644 17.1542 13.0679 18.5781L15.8418 21.352C15.9 21.3301 15.9616 21.3146 16.0275 21.3146H17.5721C18.2216 21.3146 18.8574 21.0512 19.3163 20.592L22.9292 16.9791C23.5822 16.3266 24.7206 16.3264 25.373 16.9794L28.9726 20.5788C29.4315 21.0381 30.0673 21.3015 30.7168 21.3015H31.973C32.0425 21.3015 32.1084 21.3167 32.1693 21.3411L34.9322 18.5781C36.356 17.1542 36.356 14.8458 34.9322 13.4218Z" fill="white"/>
<path fill-rule="evenodd" clip-rule="evenodd" d="M44 1H4C2.34315 1 1 2.34315 1 4V28C1 29.6569 2.34315 31 4 31H44C45.6569 31 47 29.6569 47 28V4C47 2.34315 45.6569 1 44 1ZM4 0C1.79086 0 0 1.79086 0 4V28C0 30.2091 1.79086 32 4 32H44C46.2091 32 48 30.2091 48 28V4C48 1.79086 46.2091 0 44 0H4Z" fill="black" fill-opacity="0.1"/>
</svg>
