<svg width="48" height="32" viewBox="0 0 48 32" fill="none" xmlns="http://www.w3.org/2000/svg">
<path d="M0 3C0 1.34315 1.34315 0 3 0H45C46.6569 0 48 1.34315 48 3V29C48 30.6569 46.6569 32 45 32H3C1.34315 32 0 30.6569 0 29V3Z" fill="#EFEFEF"/>
<path fill-rule="evenodd" clip-rule="evenodd" d="M45 1H3C1.89543 1 1 1.89543 1 3V29C1 30.1046 1.89543 31 3 31H45C46.1046 31 47 30.1046 47 29V3C47 1.89543 46.1046 1 45 1ZM3 0C1.34315 0 0 1.34315 0 3V29C0 30.6569 1.34315 32 3 32H45C46.6569 32 48 30.6569 48 29V3C48 1.34315 46.6569 0 45 0H3Z" fill="black" fill-opacity="0.1"/>
<path d="M28.5955 13H4V19.8608H28.5955V13Z" fill="#023C68"/>
<path fill-rule="evenodd" clip-rule="evenodd" d="M5.2621 13.8091H7.5922C8.41437 13.8091 9.08087 14.4756 9.08087 15.2978C9.08087 16.1199 8.41436 16.7864 7.5922 16.7864H5.94171V18.7605H5.22974V16.7864V14.8329V14.8123H5.94171V14.8329V16.0745H7.5922C8.02115 16.0745 8.36889 15.7267 8.36889 15.2978C8.36889 14.8688 8.02115 14.5211 7.5922 14.5211H5.61809H5.2621V13.8091ZM16.5566 18.5016V18.7605H15.9093V15.2007H16.5566V15.4111C16.7805 15.2385 17.0611 15.1359 17.3657 15.1359C17.8036 15.1359 18.1919 15.3481 18.4336 15.6752C18.6753 15.3481 19.0637 15.1359 19.5016 15.1359C20.2017 15.1359 20.7752 15.6782 20.8249 16.3657H20.8284V16.4628V18.5016V18.7605H20.3106V18.5016V16.4628C20.3106 16.016 19.9484 15.6537 19.5016 15.6537C19.0547 15.6537 18.6925 16.016 18.6925 16.4628V18.5016V18.7605H18.1747V18.5016V16.4628C18.1747 16.016 17.8125 15.6537 17.3657 15.6537C16.9188 15.6537 16.5566 16.016 16.5566 16.4628V18.5016ZM27.2362 18.2751C26.8966 18.2751 26.589 17.9998 26.589 17.6602V16.8835V15.6537H27.2362V15.1359H26.589V14.1651H25.9417V15.1359H25.4239V15.6537H25.9417V16.8835V17.6602C25.9417 18.393 26.5034 18.9871 27.2362 18.9871V18.2751ZM9.50158 15.2007H10.1488V15.4862C10.465 15.2661 10.8415 15.1359 11.2492 15.1359V15.7832C10.8462 15.7832 10.4736 15.9786 10.2074 16.3096C10.1872 16.3347 10.1677 16.3605 10.1488 16.3871V18.7605H9.50158V16.2074L9.49804 16.2053L9.50158 16.1992V15.2007ZM21.7993 15.2007H22.4466V15.4755C22.7321 15.2222 23.0916 15.0712 23.4822 15.0712C24.4115 15.0712 25.165 15.9261 25.165 16.9806C25.165 18.0351 24.4115 18.89 23.4822 18.89C23.0916 18.89 22.7321 18.739 22.4466 18.4857V19.4725H21.7993V16.9806V15.2007ZM13.3204 18.178C13.8343 18.178 14.3559 17.7026 14.3559 16.9806C14.3559 16.2586 13.8343 15.7832 13.3204 15.7832C12.8064 15.7832 12.2848 16.2586 12.2848 16.9806C12.2848 17.7026 12.8064 18.178 13.3204 18.178ZM13.3204 18.89C14.2855 18.89 15.0679 18.0351 15.0679 16.9806C15.0679 15.9261 14.2855 15.0712 13.3204 15.0712C12.3552 15.0712 11.5728 15.9261 11.5728 16.9806C11.5728 18.0351 12.3552 18.89 13.3204 18.89ZM24.453 16.9806C24.453 17.7291 23.9365 18.178 23.4822 18.178C23.0278 18.178 22.5113 17.7291 22.5113 16.9806C22.5113 16.2321 23.0278 15.7832 23.4822 15.7832C23.9365 15.7832 24.453 16.2321 24.453 16.9806Z" fill="white"/>
<path fill-rule="evenodd" clip-rule="evenodd" d="M29.2427 13H29.178V19.8608H30.6667V17.466H32.1877C33.421 17.466 34.4207 16.4663 34.4207 15.233C34.4207 13.9998 33.421 13 32.1877 13H30.6667H29.2427ZM30.6667 14.165V16.301H32.1877C32.7775 16.301 33.2556 15.8228 33.2556 15.233C33.2556 14.6432 32.7775 14.165 32.1877 14.165H30.6667ZM41.5404 13.7767H40.0518L40.8608 16.8511L41.2654 18.3883H41.2977L40.8932 19.9256H42.3819L44 13.7767H42.5113L42.0259 15.6214L41.5404 13.7767ZM36.6322 15.0999C36.4885 15.1964 36.4272 15.3053 36.4272 15.4595H35.0679C35.0679 14.7885 35.4112 14.2826 35.8743 13.9715C36.3161 13.6748 36.8626 13.5517 37.3691 13.5542C37.8758 13.5568 38.4197 13.6854 38.8584 13.9815C39.3162 14.2906 39.6634 14.7923 39.6634 15.4595V18.9547H38.3042V18.4023C38.1349 18.594 37.9438 18.7694 37.7314 18.9076C37.3617 19.1481 36.9043 19.2884 36.4023 19.1667C36.0441 19.0799 35.7622 18.9121 35.5576 18.6814C35.3562 18.4544 35.2553 18.1954 35.2083 17.9624C35.1174 17.5127 35.2136 17.0964 35.2489 16.9704C35.3673 16.5477 35.7092 16.3191 36.0021 16.1901C36.2986 16.0596 36.6545 15.9823 36.979 15.9215C37.0984 15.8991 37.2133 15.879 37.3251 15.8593C37.5401 15.8216 37.7437 15.7859 37.9452 15.7403C38.0817 15.7095 38.2012 15.6772 38.3042 15.643V15.4595C38.3042 15.3177 38.2468 15.2086 38.0979 15.1081C37.9298 14.9946 37.6646 14.9149 37.3623 14.9134C37.0597 14.9119 36.7971 14.989 36.6322 15.0999ZM36.254 17.2968C36.2369 17.3578 36.1797 17.5416 36.2234 17.7572C36.2435 17.8568 36.2798 17.935 36.3324 17.9943C36.3818 18.0499 36.4704 18.1176 36.6463 18.1603C36.8028 18.1982 36.9699 18.1675 37.1667 18.0395C37.3714 17.9063 37.5797 17.6834 37.7703 17.4011C37.9082 17.197 38.0278 16.9755 38.1235 16.7615C37.9118 16.8078 37.6834 16.8479 37.4705 16.8854C37.3652 16.9039 37.2636 16.9218 37.1698 16.9394C36.847 16.9999 36.604 17.1074 36.4272 17.1852C36.342 17.2227 36.2949 17.2555 36.2711 17.2776C36.2601 17.2877 36.2558 17.294 36.2546 17.2958L36.254 17.2968Z" fill="#023C68"/>
</svg>
