<svg width="48" height="32" viewBox="0 0 48 32" fill="none" xmlns="http://www.w3.org/2000/svg">
<g clip-path="url(#clip0_843_100316)">
<path d="M0 4C0 1.79086 1.79086 0 4 0H44C46.2091 0 48 1.79086 48 4V28C48 30.2091 46.2091 32 44 32H4C1.79086 32 0 30.2091 0 28V4Z" fill="#183372"/>
<path fill-rule="evenodd" clip-rule="evenodd" d="M39.7237 12.8992C39.0359 12.8992 38.4477 13.3936 38.3295 14.0711L38.1159 15.2943H42.7129L42.9052 13.7558C42.9621 13.301 42.6074 12.8992 42.149 12.8992H39.7237ZM37.9293 16.3629C37.9761 16.376 38.0255 16.3831 38.0765 16.3831H43.0012C43.3856 16.3831 43.7098 16.0969 43.7574 15.7155L43.9855 13.8909C44.1236 12.7862 43.2623 11.8105 42.149 11.8105H39.7237C38.5069 11.8105 37.4663 12.6852 37.257 13.8838L36.6101 17.5889C36.4123 18.7212 37.2838 19.758 38.4333 19.758H42.5402C42.8409 19.758 43.0846 19.5143 43.0846 19.2137C43.0846 18.913 42.8409 18.6693 42.5402 18.6693H38.4333C37.96 18.6693 37.6011 18.2424 37.6825 17.7762L37.9293 16.3629Z" fill="white"/>
<path fill-rule="evenodd" clip-rule="evenodd" d="M30.4145 13.807C30.6102 12.5937 31.6576 11.7017 32.8866 11.7017H36.4435C36.7441 11.7017 36.9878 11.9454 36.9878 12.2461C36.9878 12.5467 36.7441 12.7904 36.4435 12.7904H32.8866C32.1919 12.7904 31.6 13.2946 31.4893 13.9804L31.455 14.1933C31.3803 14.6566 31.7381 15.0767 32.2074 15.0767H34.6369C35.7502 15.0767 36.6115 16.0524 36.4734 17.1571L36.3884 17.8373C36.259 18.8725 35.3791 19.6493 34.3359 19.6493H29.9112C29.6106 19.6493 29.3669 19.4056 29.3669 19.1049C29.3669 18.8043 29.6106 18.5606 29.9112 18.5606H34.3359C34.83 18.5606 35.2468 18.1926 35.3081 17.7023L35.3931 17.022C35.45 16.5672 35.0953 16.1654 34.6369 16.1654H32.2074C31.0676 16.1654 30.1987 15.1451 30.3802 14.0199L30.4145 13.807Z" fill="white"/>
<path fill-rule="evenodd" clip-rule="evenodd" d="M26.4368 12.7904C25.4349 12.7904 24.5771 13.5084 24.4006 14.4946L23.7944 17.8821C23.8077 17.8978 23.8203 17.9145 23.8319 17.932L23.9034 18.0392C24.1659 18.4329 24.6078 18.6694 25.081 18.6694H27.3028C27.6695 18.6694 27.9843 18.4082 28.0518 18.0478L28.8684 13.693C28.9563 13.224 28.5965 12.7904 28.1193 12.7904H26.4368ZM23.552 19.2371C23.9843 19.5704 24.5202 19.7581 25.081 19.7581H27.3028C28.1934 19.7581 28.9578 19.1238 29.1219 18.2484L29.9384 13.8936C30.152 12.7546 29.2782 11.7017 28.1193 11.7017H26.4368C24.9076 11.7017 23.5983 12.7976 23.3289 14.3028L21.8633 22.4929C21.8104 22.7888 22.0074 23.0717 22.3033 23.1246C22.5992 23.1776 22.8821 22.9806 22.935 22.6847L23.552 19.2371Z" fill="white"/>
<path d="M17.5 8.87096C17.5 9.35195 17.1101 9.74193 16.6291 9.74193C16.148 9.74193 15.7581 9.35195 15.7581 8.87096C15.7581 8.38998 16.148 8 16.6291 8C17.1101 8 17.5 8.38998 17.5 8.87096Z" fill="#F6BB28"/>
<path d="M18.1532 11.9193C18.6342 11.9193 19.0241 11.5294 19.0241 11.0484C19.0241 10.5674 18.6342 10.1774 18.1532 10.1774C17.6721 10.1774 17.2822 10.5674 17.2822 11.0484C17.2822 11.5294 17.6721 11.9193 18.1532 11.9193Z" fill="#F6BB28"/>
<path d="M14.4241 13.2258C14.3274 12.8502 13.9864 12.5726 13.5806 12.5726C13.0996 12.5726 12.7096 12.9625 12.7096 13.4435C12.7096 13.9245 13.0996 14.3145 13.5806 14.3145C13.903 14.3145 14.1844 14.1394 14.335 13.879H17.1204L18.3647 15.5121H12.8641C12.7349 15.1929 12.4219 14.9677 12.0564 14.9677C11.5754 14.9677 11.1855 15.3577 11.1855 15.8387C11.1855 16.3197 11.5754 16.7096 12.0564 16.7096C12.4219 16.7096 12.7349 16.4845 12.8641 16.1653H19.6932L18.8223 17.9072H17.4366C17.3074 17.588 16.9945 17.3629 16.629 17.3629C16.1479 17.3629 15.758 17.7528 15.758 18.2338C15.758 18.7148 16.1479 19.1048 16.629 19.1048C16.9945 19.1048 17.3074 18.8796 17.4366 18.5604H19.226L20.4236 16.1653H22.6168V15.5121H19.1859L17.444 13.2258H14.4241Z" fill="#F6BB28"/>
<path d="M15.1049 11.9193C15.5859 11.9193 15.9759 11.5294 15.9759 11.0484C15.9759 10.5674 15.5859 10.1774 15.1049 10.1774C14.6239 10.1774 14.2339 10.5674 14.2339 11.0484C14.2339 11.5294 14.6239 11.9193 15.1049 11.9193Z" fill="#F6BB28"/>
<path d="M18.1532 21.2822C18.6342 21.2822 19.0241 20.8922 19.0241 20.4112C19.0241 19.9302 18.6342 19.5403 18.1532 19.5403C17.6721 19.5403 17.2822 19.9302 17.2822 20.4112C17.2822 20.8922 17.6721 21.2822 18.1532 21.2822Z" fill="#F6BB28"/>
<path d="M17.7177 22.8064C17.7177 23.2874 17.3277 23.6773 16.8467 23.6773C16.3657 23.6773 15.9758 23.2874 15.9758 22.8064C15.9758 22.3254 16.3657 21.9354 16.8467 21.9354C17.3277 21.9354 17.7177 22.3254 17.7177 22.8064Z" fill="#F6BB28"/>
<path d="M15.1049 21.0646C15.4657 21.0646 15.7581 20.7721 15.7581 20.4113C15.7581 20.0506 15.4657 19.7581 15.1049 19.7581C14.7441 19.7581 14.4517 20.0506 14.4517 20.4113C14.4517 20.7721 14.7441 21.0646 15.1049 21.0646Z" fill="#F6BB28"/>
<path d="M14.2339 18.2338C14.2339 18.5946 13.9415 18.887 13.5807 18.887C13.2199 18.887 12.9275 18.5946 12.9275 18.2338C12.9275 17.8731 13.2199 17.5806 13.5807 17.5806C13.9415 17.5806 14.2339 17.8731 14.2339 18.2338Z" fill="#F6BB28"/>
<path d="M9.00796 16.4919C9.36873 16.4919 9.66118 16.1994 9.66118 15.8387C9.66118 15.4779 9.36873 15.1855 9.00796 15.1855C8.6472 15.1855 8.35474 15.4779 8.35474 15.8387C8.35474 16.1994 8.6472 16.4919 9.00796 16.4919Z" fill="#F6BB28"/>
<path d="M11.1854 13.4435C11.1854 13.8043 10.8929 14.0967 10.5321 14.0967C10.1714 14.0967 9.87891 13.8043 9.87891 13.4435C9.87891 13.0828 10.1714 12.7903 10.5321 12.7903C10.8929 12.7903 11.1854 13.0828 11.1854 13.4435Z" fill="#F6BB28"/>
<path d="M12.0565 11.7015C12.4173 11.7015 12.7097 11.409 12.7097 11.0483C12.7097 10.6875 12.4173 10.3951 12.0565 10.3951C11.6957 10.3951 11.4033 10.6875 11.4033 11.0483C11.4033 11.409 11.6957 11.7015 12.0565 11.7015Z" fill="#F6BB28"/>
<path d="M14.2339 8.65322C14.2339 9.01396 13.9415 9.30645 13.5807 9.30645C13.2199 9.30645 12.9275 9.01396 12.9275 8.65322C12.9275 8.29248 13.2199 8 13.5807 8C13.9415 8 14.2339 8.29248 14.2339 8.65322Z" fill="#F6BB28"/>
<path d="M10.5321 18.887C10.8929 18.887 11.1854 18.5946 11.1854 18.2338C11.1854 17.8731 10.8929 17.5806 10.5321 17.5806C10.1714 17.5806 9.87891 17.8731 9.87891 18.2338C9.87891 18.5946 10.1714 18.887 10.5321 18.887Z" fill="#F6BB28"/>
<path d="M14.2339 22.8064C14.2339 23.1671 13.9415 23.4596 13.5807 23.4596C13.2199 23.4596 12.9275 23.1671 12.9275 22.8064C12.9275 22.4456 13.2199 22.1532 13.5807 22.1532C13.9415 22.1532 14.2339 22.4456 14.2339 22.8064Z" fill="#F6BB28"/>
<path d="M11.9476 21.0645C12.2483 21.0645 12.492 20.8208 12.492 20.5201C12.492 20.2194 12.2483 19.9758 11.9476 19.9758C11.647 19.9758 11.4033 20.2194 11.4033 20.5201C11.4033 20.8208 11.647 21.0645 11.9476 21.0645Z" fill="#F6BB28"/>
<path d="M7.91928 18.3427C7.91928 18.6434 7.67557 18.887 7.37492 18.887C7.07428 18.887 6.83057 18.6434 6.83057 18.3427C6.83057 18.042 7.07428 17.7983 7.37492 17.7983C7.67557 17.7983 7.91928 18.042 7.91928 18.3427Z" fill="#F6BB28"/>
<path d="M6.72184 16.4919C7.02248 16.4919 7.26619 16.2482 7.26619 15.9475C7.26619 15.6469 7.02248 15.4032 6.72184 15.4032C6.4212 15.4032 6.17749 15.6469 6.17749 15.9475C6.17749 16.2482 6.4212 16.4919 6.72184 16.4919Z" fill="#F6BB28"/>
<path d="M7.91928 13.5525C7.91928 13.8532 7.67557 14.0968 7.37492 14.0968C7.07428 14.0968 6.83057 13.8532 6.83057 13.5525C6.83057 13.2518 7.07428 13.0081 7.37492 13.0081C7.67557 13.0081 7.91928 13.2518 7.91928 13.5525Z" fill="#F6BB28"/>
<path d="M8.89909 11.4838C9.19973 11.4838 9.44344 11.2401 9.44344 10.9394C9.44344 10.6387 9.19973 10.3951 8.89909 10.3951C8.59845 10.3951 8.35474 10.6387 8.35474 10.9394C8.35474 11.2401 8.59845 11.4838 8.89909 11.4838Z" fill="#F6BB28"/>
<path d="M10.9676 8.76212C10.9676 9.06279 10.7239 9.30648 10.4233 9.30648C10.1226 9.30648 9.87891 9.06279 9.87891 8.76212C9.87891 8.46145 10.1226 8.21777 10.4233 8.21777C10.7239 8.21777 10.9676 8.46145 10.9676 8.76212Z" fill="#F6BB28"/>
<path d="M10.4233 23.2419C10.7239 23.2419 10.9676 22.9982 10.9676 22.6975C10.9676 22.3968 10.7239 22.1532 10.4233 22.1532C10.1226 22.1532 9.87891 22.3968 9.87891 22.6975C9.87891 22.9982 10.1226 23.2419 10.4233 23.2419Z" fill="#F6BB28"/>
<path d="M9.44347 20.4112C9.44347 20.6517 9.2485 20.8467 9.00799 20.8467C8.76749 20.8467 8.57251 20.6517 8.57251 20.4112C8.57251 20.1707 8.76749 19.9758 9.00799 19.9758C9.2485 19.9758 9.44347 20.1707 9.44347 20.4112Z" fill="#F6BB28"/>
<path d="M6.72187 20.8467C6.90225 20.8467 7.04848 20.7005 7.04848 20.5201C7.04848 20.3397 6.90225 20.1935 6.72187 20.1935C6.54149 20.1935 6.39526 20.3397 6.39526 20.5201C6.39526 20.7005 6.54149 20.8467 6.72187 20.8467Z" fill="#F6BB28"/>
<path d="M5.52408 18.3427C5.52408 18.5231 5.37785 18.6693 5.19747 18.6693C5.01708 18.6693 4.87085 18.5231 4.87085 18.3427C4.87085 18.1623 5.01708 18.0161 5.19747 18.0161C5.37785 18.0161 5.52408 18.1623 5.52408 18.3427Z" fill="#F6BB28"/>
<path d="M4.32661 16.2741C4.50699 16.2741 4.65322 16.1279 4.65322 15.9474C4.65322 15.767 4.50699 15.6208 4.32661 15.6208C4.14623 15.6208 4 15.767 4 15.9474C4 16.1279 4.14623 16.2741 4.32661 16.2741Z" fill="#F6BB28"/>
<path d="M5.52408 13.5524C5.52408 13.7328 5.37785 13.879 5.19747 13.879C5.01708 13.879 4.87085 13.7328 4.87085 13.5524C4.87085 13.372 5.01708 13.2258 5.19747 13.2258C5.37785 13.2258 5.52408 13.372 5.52408 13.5524Z" fill="#F6BB28"/>
<path d="M6.72187 11.2661C6.90225 11.2661 7.04848 11.1199 7.04848 10.9395C7.04848 10.7591 6.90225 10.6129 6.72187 10.6129C6.54149 10.6129 6.39526 10.7591 6.39526 10.9395C6.39526 11.1199 6.54149 11.2661 6.72187 11.2661Z" fill="#F6BB28"/>
<path fill-rule="evenodd" clip-rule="evenodd" d="M44 1H4C2.34315 1 1 2.34315 1 4V28C1 29.6569 2.34315 31 4 31H44C45.6569 31 47 29.6569 47 28V4C47 2.34315 45.6569 1 44 1ZM4 0C1.79086 0 0 1.79086 0 4V28C0 30.2091 1.79086 32 4 32H44C46.2091 32 48 30.2091 48 28V4C48 1.79086 46.2091 0 44 0H4Z" fill="white" fill-opacity="0.1"/>
</g>
<defs>
<clipPath id="clip0_843_100316">
<rect width="48" height="32" fill="white"/>
</clipPath>
</defs>
</svg>
