<svg width="48" height="32" viewBox="0 0 48 32" fill="none" xmlns="http://www.w3.org/2000/svg">
<path d="M0 3C0 1.34315 1.34315 0 3 0H45C46.6569 0 48 1.34315 48 3V29C48 30.6569 46.6569 32 45 32H3C1.34315 32 0 30.6569 0 29V3Z" fill="#007F61"/>
<path fill-rule="evenodd" clip-rule="evenodd" d="M3 1C1.89543 1 1 1.89543 1 3V29C1 30.1046 1.89543 31 3 31H45C46.1046 31 47 30.1046 47 29V3C47 1.89543 46.1046 1 45 1H3ZM3 0C1.34315 0 0 1.34315 0 3V29C0 30.6569 1.34315 32 3 32H45C46.6569 32 48 30.6569 48 29V3C48 1.34315 46.6569 0 45 0H3Z" fill="black" fill-opacity="0.1"/>
<path d="M10.9998 28.9852V3.01496C11.0439 2.99132 11.0918 3.00301 11.1378 3.00301C20.0406 3.00238 28.9435 3.00238 37.8463 3.00289C37.8927 3.00289 37.9401 2.99501 37.9857 3.01115C38.0077 3.05538 37.9969 3.10278 37.9969 3.14854C37.9975 11.7149 37.9975 20.2814 37.9971 28.8478C37.9971 28.894 38.005 28.941 37.9887 28.9862C37.9442 29.0081 37.8964 28.9974 37.8504 28.9974C28.9461 28.9979 20.0419 28.9979 11.1376 28.9974C11.0917 28.9974 11.0439 29.0089 10.9998 28.9852Z" fill="#007F61"/>
<path d="M24.327 4.47839C27.588 4.47839 30.8489 4.47839 34.1097 4.47851C34.2204 4.47851 34.3313 4.47483 34.4406 4.49936C34.8725 4.59671 35.2097 4.95779 35.2743 5.39385C35.288 5.48586 35.2921 5.57712 35.2824 5.67142C35.2245 6.23508 35.1727 6.79925 35.1171 7.36317C35.0621 7.92276 35.0043 8.4821 34.949 9.04182C34.9021 9.51728 34.8578 9.993 34.8109 10.4686C34.7557 11.0282 34.6989 11.5876 34.6434 12.1472C34.6063 12.5217 34.5706 12.8963 34.5336 13.2709C34.4851 13.7632 34.4357 14.2553 34.3873 14.7477C34.3409 15.219 34.296 15.6905 34.2496 16.1618C34.2024 16.6414 34.1539 17.1209 34.1064 17.6006C34.0694 17.975 34.0334 18.3497 33.9964 18.7241C33.9479 19.2163 33.8983 19.7086 33.8501 20.2009C33.8037 20.6722 33.7589 21.1437 33.7124 21.615C33.6652 22.0946 33.6167 22.5742 33.5692 23.0538C33.5322 23.4284 33.4962 23.8029 33.4592 24.1773C33.4107 24.6696 33.3609 25.1618 33.3131 25.6542C33.2923 25.8688 33.2759 26.0839 33.2562 26.2985C33.2348 26.5312 33.1585 26.7447 33.0147 26.9303C32.8467 27.1471 32.6301 27.2632 32.3455 27.2625C30.8323 27.2593 29.319 27.2616 27.8059 27.2625C27.6367 27.2625 27.6544 27.2427 27.6539 27.4097C27.6531 27.6635 27.6543 27.9174 27.6534 28.1712C27.6529 28.3192 27.6713 28.3036 27.5144 28.3037C26.9517 28.3043 26.389 28.3039 25.8263 28.3039C24.3301 28.3039 22.834 28.3042 21.3378 28.3037C21.1569 28.3037 21.1836 28.323 21.1825 28.1484C21.181 27.9073 21.1833 27.6661 21.1817 27.425C21.1804 27.2343 21.2062 27.2618 21.0228 27.2613C20.473 27.26 19.9231 27.2607 19.3732 27.2607C18.3672 27.2607 17.3612 27.2569 16.3553 27.263C16.0334 27.2649 15.8008 27.1272 15.6267 26.8722C15.5096 26.7006 15.4439 26.5087 15.4265 26.3035C15.3539 25.4439 15.2594 24.5867 15.1744 23.7284C15.1023 23.0006 15.0327 22.2723 14.9602 21.5444C14.8881 20.8208 14.813 20.0975 14.7406 19.3738C14.6851 18.8184 14.6327 18.2627 14.5774 17.7073C14.5221 17.1519 14.4641 16.5969 14.4087 16.0415C14.3532 15.4861 14.3004 14.9305 14.2452 14.3752C14.1899 13.8198 14.1324 13.2646 14.077 12.7094C14.03 12.2381 13.9855 11.7667 13.9384 11.2955C13.883 10.7401 13.8255 10.1849 13.7701 9.62963C13.7235 9.16256 13.6789 8.69537 13.6325 8.22842C13.5856 7.75716 13.5368 7.28615 13.4901 6.81488C13.4505 6.41517 13.4035 6.01584 13.3763 5.61524C13.3406 5.09263 13.7021 4.62213 14.2133 4.50139C14.3141 4.47762 14.4162 4.47839 14.5184 4.47839C15.8441 4.47813 17.1698 4.47826 18.4954 4.47826C20.4392 4.47826 22.3832 4.47839 24.327 4.47839Z" fill="#FEFEFE"/>
<path d="M32.0289 7.23467V7.38134C32.0289 9.1027 32.0289 10.8242 32.0289 12.5456C32.0289 12.571 32.0274 12.5964 32.0292 12.6217C32.0327 12.6698 32.0166 12.6968 31.966 12.7147C31.0464 13.0408 30.2948 13.6138 29.6228 14.2996C29.1089 14.8241 28.6706 15.404 28.3519 16.0676C28.2065 16.3706 28.1008 16.686 28.0614 17.018C28.0148 17.0378 27.9717 17.0298 27.9297 17.0297C26.2378 17.027 24.5461 17.0242 22.8542 17.02C22.695 17.0196 22.6872 17.0527 22.7262 16.8617C23.0367 15.3434 23.6996 13.985 24.6239 12.7456C25.4154 11.6846 26.3552 10.7684 27.3979 9.95347C28.736 8.90774 30.1967 8.06333 31.7401 7.35541C31.8316 7.31347 31.9206 7.26391 32.0289 7.23467Z" fill="#ED1B2D"/>
<path d="M30.1528 7.4834C29.8993 7.61786 29.6484 7.7414 29.404 7.87777C28.414 8.43012 27.4817 9.06775 26.5866 9.75991C25.9605 10.244 25.3591 10.7561 24.8116 11.3279C24.5056 11.6474 24.2186 11.9821 23.9939 12.3646C23.9643 12.415 23.9316 12.4404 23.8732 12.4332C23.8522 12.4305 23.8306 12.4328 23.8093 12.4328C21.5883 12.4328 19.3673 12.4331 17.1465 12.4324C16.9621 12.4324 16.9858 12.4558 16.9853 12.2691C16.9813 10.7248 16.9783 9.18061 16.9753 7.63629C16.9749 7.46052 16.9657 7.48378 17.1227 7.48378C21.4196 7.4834 25.7166 7.48352 30.0135 7.48352L30.1528 7.4834Z" fill="#F5821F"/>
<path d="M24.4658 27.9244C23.5539 27.9244 22.6421 27.9244 21.7302 27.9244C21.5742 27.9244 21.5924 27.9332 21.5922 27.7892C21.5904 26.8544 21.6129 25.92 21.6473 24.9861C21.6744 24.251 21.7174 23.5164 21.7743 22.7828C21.8012 22.4373 21.8393 22.0927 21.8681 21.7473C21.8734 21.682 21.8965 21.6554 21.961 21.6612C21.9864 21.6635 22.0121 21.6615 22.0377 21.6615C23.8146 21.6615 25.5914 21.6611 27.3683 21.662C27.5432 21.662 27.5357 21.6311 27.516 21.827C27.4535 22.4457 27.4188 23.0659 27.3922 23.687C27.3341 25.0437 27.3405 26.4013 27.3359 27.7588C27.3352 27.9468 27.36 27.9241 27.1631 27.9242C26.2639 27.9249 25.3649 27.9244 24.4658 27.9244Z" fill="#ED1B2D"/>
<path d="M30.5411 17.775C30.6739 17.6917 30.7858 17.6236 30.9077 17.5735C31.1865 17.4591 31.4723 17.4158 31.7698 17.4853C31.8702 17.5088 31.9636 17.5491 32.048 17.6087C32.2061 17.7204 32.3002 17.8695 32.3149 18.064C32.3188 18.1146 32.3197 18.1654 32.3197 18.2161C32.3199 19.1849 32.3198 20.1539 32.3199 21.1227C32.3199 21.2842 32.3209 21.2617 32.1842 21.262C31.8944 21.2628 31.6045 21.2624 31.3145 21.2623C31.1741 21.2623 31.1813 21.2733 31.1813 21.1339C31.1813 20.3724 31.1813 19.6108 31.1813 18.8492C31.1813 18.7814 31.176 18.7133 31.1823 18.6462C31.1934 18.5286 31.1335 18.4525 31.0121 18.4103C30.9434 18.3864 30.8721 18.3776 30.7983 18.3917C30.6396 18.4221 30.5432 18.53 30.5418 18.6912C30.5396 18.9366 30.541 19.182 30.541 19.4273C30.541 19.9943 30.541 20.5612 30.541 21.1282C30.541 21.2694 30.5533 21.262 30.4131 21.262C30.1189 21.262 29.8248 21.2623 29.5306 21.262C29.4087 21.2619 29.4081 21.2613 29.4081 21.1351C29.408 19.9842 29.4081 18.8334 29.4081 17.6826C29.4081 17.6657 29.4096 17.6486 29.4081 17.6319C29.4031 17.5791 29.4226 17.5567 29.4797 17.5571C29.8079 17.559 30.1362 17.5595 30.4644 17.5569C30.5283 17.5564 30.5474 17.5803 30.5419 17.639C30.5383 17.6763 30.5411 17.7142 30.5411 17.775Z" fill="#008061"/>
<path d="M23.7511 17.5742C23.7938 17.549 23.833 17.5585 23.8705 17.5584C24.1305 17.5575 24.3904 17.5578 24.6504 17.558C24.7727 17.558 24.7745 17.558 24.7952 17.6728C24.9122 18.3216 25.0284 18.9707 25.1447 19.6196C25.1634 19.7236 25.1814 19.8278 25.1997 19.9317C25.2032 19.9525 25.2053 19.9742 25.2374 19.9812C25.2994 19.6455 25.3619 19.3103 25.4232 18.9749C25.5031 18.5383 25.5819 18.1016 25.6617 17.665C25.681 17.5592 25.6819 17.5584 25.7904 17.5581C26.012 17.5575 26.2336 17.5578 26.4552 17.5583C26.4844 17.5583 26.515 17.552 26.5433 17.5693C26.559 17.6025 26.5433 17.6341 26.5373 17.6663C26.3196 18.8037 26.1017 19.941 25.8845 21.0785C25.8494 21.2622 25.8508 21.2624 25.6658 21.2624C25.2609 21.2624 24.856 21.2625 24.4511 21.2624C24.3361 21.2624 24.3337 21.262 24.3159 21.1515C24.2335 20.6381 24.1525 20.1247 24.0711 19.6112C23.9724 18.9892 23.8737 18.3673 23.7751 17.7453C23.766 17.6876 23.7587 17.6293 23.7511 17.5742Z" fill="#008061"/>
<path d="M26.8088 19.4056C26.8088 18.8386 26.8088 18.2718 26.8088 17.7048C26.8088 17.6752 26.8105 17.6455 26.8088 17.616C26.8064 17.5711 26.8297 17.5564 26.8709 17.558C26.8964 17.559 26.922 17.5579 26.9476 17.5579C27.5571 17.5579 28.1668 17.5579 28.7763 17.5579C28.7976 17.5579 28.8191 17.5595 28.8402 17.5579C28.8885 17.5539 28.9083 17.5729 28.908 17.6227C28.9064 17.8511 28.9061 18.0796 28.9084 18.3081C28.9091 18.3637 28.8887 18.3808 28.8344 18.3803C28.6042 18.3783 28.374 18.3795 28.1439 18.3797C28.114 18.3797 28.0841 18.3815 28.0544 18.3797C27.9927 18.3757 27.9873 18.4132 27.9875 18.4608C27.9887 18.6384 27.9906 18.8162 27.9866 18.9938C27.9851 19.0629 28.0134 19.0796 28.0769 19.0788C28.3071 19.0763 28.5373 19.0772 28.7675 19.0782C28.9288 19.0789 28.906 19.0624 28.9073 19.2228C28.9084 19.3794 28.9051 19.536 28.9087 19.6924C28.9101 19.7541 28.8885 19.772 28.8278 19.7714C28.5848 19.7686 28.3418 19.7698 28.0989 19.7705C27.9893 19.7707 27.9886 19.7717 27.9882 19.8822C27.9875 20.0471 27.991 20.2122 27.9866 20.3771C27.9848 20.4451 28.0093 20.4647 28.0747 20.4639C28.3177 20.4613 28.5607 20.4624 28.8037 20.4633C28.906 20.4636 28.907 20.4649 28.9074 20.5694C28.9082 20.7683 28.9083 20.9671 28.9074 21.166C28.9069 21.2595 28.9053 21.262 28.82 21.2622C28.1806 21.2629 27.5411 21.2629 26.9018 21.2622C26.8109 21.2622 26.8093 21.2596 26.8092 21.1573C26.8087 20.5734 26.8088 19.9893 26.8088 19.4056Z" fill="#008061"/>
<path d="M16.5494 19.4014C16.5494 18.8389 16.5494 18.2763 16.5494 17.714C16.5494 17.6843 16.5513 17.6546 16.5491 17.6251C16.5457 17.5771 16.5647 17.5542 16.6148 17.5579C16.6403 17.5598 16.6659 17.5579 16.6915 17.5579C17.2965 17.5579 17.9017 17.5579 18.5068 17.5579C18.5366 17.5579 18.5664 17.5588 18.5963 17.5584C18.6344 17.5579 18.6478 17.5777 18.6477 17.6134C18.6473 17.8502 18.6468 18.0871 18.648 18.3239C18.6482 18.382 18.6098 18.3794 18.5706 18.3794C18.3362 18.3794 18.1019 18.3794 17.8675 18.3797C17.7175 18.3799 17.7291 18.3671 17.7288 18.5155C17.7284 18.672 17.7277 18.8286 17.7291 18.985C17.7299 19.0748 17.7316 19.0769 17.8216 19.0774C18.0602 19.0787 18.2988 19.0774 18.5375 19.0781C18.6467 19.0784 18.6473 19.0795 18.6477 19.1895C18.6482 19.3545 18.6453 19.5195 18.6491 19.6843C18.6507 19.7499 18.6298 19.7722 18.5626 19.7714C18.3325 19.768 18.1023 19.7701 17.8723 19.7702C17.8424 19.7702 17.8126 19.771 17.7828 19.7706C17.7459 19.7701 17.729 19.7875 17.7291 19.8241C17.7295 20.0187 17.7298 20.2131 17.7289 20.4077C17.7286 20.4549 17.7563 20.4629 17.7947 20.4627C17.897 20.4624 17.9993 20.4627 18.1014 20.4627C18.2548 20.4627 18.4083 20.4654 18.5616 20.4616C18.6288 20.4599 18.6499 20.4836 18.6489 20.5492C18.6457 20.7563 18.6486 20.9636 18.6473 21.1709C18.6468 21.2596 18.6448 21.2618 18.5541 21.262C18.1877 21.2629 17.8212 21.2624 17.4548 21.2624C17.1905 21.2624 16.9264 21.2628 16.6622 21.2622C16.5508 21.2619 16.5496 21.261 16.5495 21.1521C16.5491 20.5685 16.5494 19.9851 16.5494 19.4014Z" fill="#008061"/>
<path d="M21.4348 19.4043C21.4348 18.8417 21.4348 18.2789 21.4348 17.7162C21.4348 17.6908 21.4379 17.665 21.4343 17.6401C21.4242 17.5687 21.4618 17.5514 21.5235 17.5579C21.5362 17.5592 21.5491 17.5579 21.562 17.5579C22.1758 17.5579 22.7896 17.5579 23.4035 17.5579C23.4247 17.5579 23.4461 17.5589 23.4674 17.558C23.5078 17.5564 23.5307 17.5698 23.5305 17.6152C23.5294 17.8521 23.5297 18.089 23.5303 18.3259C23.5305 18.3853 23.4885 18.3792 23.4505 18.3793C23.2757 18.3797 23.1009 18.3795 22.9262 18.3795C22.8495 18.3795 22.7726 18.3822 22.696 18.3788C22.6363 18.3761 22.6124 18.3962 22.6134 18.4581C22.6165 18.6358 22.6168 18.8134 22.6133 18.9911C22.612 19.0568 22.634 19.0798 22.7009 19.0788C22.9011 19.0755 23.1016 19.0763 23.3019 19.0784C23.3734 19.0792 23.463 19.0482 23.5116 19.0945C23.5611 19.1412 23.5278 19.2308 23.5297 19.3015C23.5328 19.4156 23.5309 19.5299 23.5305 19.6441C23.53 19.7768 23.5433 19.7701 23.4087 19.7701C23.1827 19.7701 22.9569 19.7697 22.7309 19.7702C22.6155 19.7705 22.615 19.7712 22.6147 19.8889C22.6142 20.0539 22.6171 20.219 22.6134 20.3839C22.612 20.4465 22.6356 20.4641 22.695 20.4636C22.938 20.4615 23.181 20.4622 23.424 20.4631C23.5288 20.4635 23.5301 20.4648 23.5305 20.5671C23.5314 20.7702 23.5287 20.9733 23.5319 21.1763C23.5329 21.2421 23.511 21.2637 23.4443 21.2636C22.8049 21.2617 22.1655 21.2628 21.5261 21.262C21.4369 21.262 21.4356 21.2595 21.4355 21.1558C21.435 20.5719 21.4348 19.988 21.4348 19.4043Z" fill="#008061"/>
<path d="M19.0399 19.4122C19.0399 18.8455 19.0399 18.2788 19.0399 17.7121C19.0399 17.6782 19.0408 17.6444 19.0404 17.6105C19.0399 17.5725 19.0602 17.5581 19.0961 17.5583C19.1471 17.5585 19.1984 17.5579 19.2494 17.5579C19.5349 17.5579 19.8204 17.5575 20.1059 17.5579C20.2224 17.558 20.2234 17.5588 20.2234 17.6762C20.2238 18.3994 20.2236 19.1225 20.2236 19.8458C20.2236 20.0235 20.2263 20.2012 20.2223 20.3787C20.2208 20.4466 20.2461 20.4647 20.3109 20.4639C20.5495 20.461 20.7882 20.4622 21.0268 20.463C21.1381 20.4634 21.1391 20.4644 21.1396 20.5751C21.1405 20.7697 21.1406 20.9641 21.1396 21.1587C21.1391 21.2598 21.1375 21.2619 21.0442 21.262C20.4093 21.2627 19.7745 21.2627 19.1395 21.262C19.0414 21.262 19.0401 21.2599 19.04 21.1502C19.0395 20.5708 19.0399 19.9915 19.0399 19.4122Z" fill="#008061"/>
</svg>
