<svg width="48" height="32" viewBox="0 0 48 32" fill="none" xmlns="http://www.w3.org/2000/svg">
<g clip-path="url(#clip0_843_100328)">
<path d="M0 4C0 1.79086 1.79086 0 4 0H44C46.2091 0 48 1.79086 48 4V28C48 30.2091 46.2091 32 44 32H4C1.79086 32 0 30.2091 0 28V4Z" fill="#F7F7F7"/>
<path fill-rule="evenodd" clip-rule="evenodd" d="M27.3453 10.225H31.3593H37.7818V12.6334H31.3593V14.6404H37.3804V17.0488H31.3593V19.4572H37.7818V22.6685H31.3593H27.3453V12.6334V10.225ZM43 10.225H38.986V14.239H40.5916V12.0313L43 15.0418V10.225Z" fill="#F19700"/>
<path fill-rule="evenodd" clip-rule="evenodd" d="M10.2088 22.8927C11.3069 22.8927 12.2469 22.7289 13.0288 22.4012C13.8107 22.0677 14.4087 21.5963 14.8226 20.9868C15.2366 20.3774 15.4435 19.6588 15.4435 18.8309V18.8222C15.4435 18.1553 15.3055 17.589 15.0296 17.1233C14.7536 16.6519 14.331 16.2638 13.7619 15.9591C13.1927 15.6544 12.4654 15.4187 11.58 15.2519L10.3037 15.0105C9.63678 14.884 9.15097 14.723 8.84626 14.5275C8.54154 14.3321 8.38919 14.0676 8.38919 13.7341V13.7255C8.38919 13.4898 8.45818 13.28 8.59616 13.096C8.73989 12.9063 8.94687 12.7568 9.21708 12.6475C9.4873 12.5383 9.81501 12.4837 10.2002 12.4837C10.5797 12.4837 10.916 12.5383 11.2092 12.6475C11.5024 12.7568 11.7381 12.9091 11.9164 13.1046C12.0946 13.3001 12.2009 13.5358 12.2354 13.8118L12.2441 13.9066H15.1848L15.1762 13.7255C15.1417 12.9724 14.9232 12.317 14.5208 11.7593C14.1241 11.2016 13.5606 10.7704 12.8305 10.4657C12.1003 10.1552 11.215 10 10.1743 10C9.22571 10 8.37769 10.1639 7.63029 10.4916C6.88863 10.8135 6.30508 11.2706 5.87964 11.8628C5.45419 12.4492 5.24147 13.142 5.24147 13.9411V13.9497C5.24147 14.9041 5.56055 15.6831 6.19872 16.2868C6.84264 16.8847 7.77977 17.2987 9.01011 17.5287L10.2864 17.7787C11.0166 17.9167 11.534 18.0835 11.8387 18.2789C12.1435 18.4687 12.2958 18.7389 12.2958 19.0896V19.0982C12.2958 19.3569 12.2124 19.584 12.0457 19.7795C11.879 19.975 11.6433 20.1302 11.3386 20.2452C11.0396 20.3544 10.6803 20.409 10.2606 20.409C9.85813 20.409 9.49305 20.3544 9.16534 20.2452C8.83763 20.1302 8.56742 19.975 8.35469 19.7795C8.14772 19.5783 8.01549 19.3425 7.95799 19.0723L7.94075 18.9861H5L5.00862 19.1413C5.06037 19.9347 5.29896 20.6103 5.72441 21.1679C6.1556 21.7256 6.75065 22.1539 7.50955 22.4529C8.2742 22.7461 9.17396 22.8927 10.2088 22.8927ZM20.12 10.225H16.5074V17.8517V22.6685H20.12V17.8517H23.1306C25.2366 17.8517 26.9439 16.1444 26.9439 14.0383C26.9439 11.9323 25.2366 10.225 23.1306 10.225H20.12ZM20.12 15.0418H23.1306C23.6848 15.0418 24.1341 14.5926 24.1341 14.0383C24.1341 13.4841 23.6848 13.0348 23.1306 13.0348H20.12V15.0418ZM43 22.6685H38.986V18.6545H40.5916V20.8622L43 17.8517V22.6685Z" fill="#002972"/>
<path fill-rule="evenodd" clip-rule="evenodd" d="M44 1H4C2.34315 1 1 2.34315 1 4V28C1 29.6569 2.34315 31 4 31H44C45.6569 31 47 29.6569 47 28V4C47 2.34315 45.6569 1 44 1ZM4 0C1.79086 0 0 1.79086 0 4V28C0 30.2091 1.79086 32 4 32H44C46.2091 32 48 30.2091 48 28V4C48 1.79086 46.2091 0 44 0H4Z" fill="black" fill-opacity="0.1"/>
</g>
<defs>
<clipPath id="clip0_843_100328">
<rect width="48" height="32" fill="white"/>
</clipPath>
</defs>
</svg>
