<svg width="48" height="32" viewBox="0 0 48 32" fill="none" xmlns="http://www.w3.org/2000/svg">
<path d="M0 3C0 1.34315 1.34315 0 3 0H45C46.6569 0 48 1.34315 48 3V29C48 30.6569 46.6569 32 45 32H3C1.34315 32 0 30.6569 0 29V3Z" fill="#EFEFEF"/>
<path fill-rule="evenodd" clip-rule="evenodd" d="M45 1H3C1.89543 1 1 1.89543 1 3V29C1 30.1046 1.89543 31 3 31H45C46.1046 31 47 30.1046 47 29V3C47 1.89543 46.1046 1 45 1ZM3 0C1.34315 0 0 1.34315 0 3V29C0 30.6569 1.34315 32 3 32H45C46.6569 32 48 30.6569 48 29V3C48 1.34315 46.6569 0 45 0H3Z" fill="black" fill-opacity="0.1"/>
<path d="M12.4832 12.4845C12.8016 11.8981 13.1504 11.3218 13.4841 10.7455C13.8329 10.1389 14.1715 9.52223 14.5355 8.92573C15.0663 8.05626 16.1936 7.71758 17.0782 8.26858C17.4826 8.52133 17.7808 8.92573 17.892 9.39079C18.0386 10.0075 17.8162 10.5383 17.5129 11.064C16.8153 12.2621 16.1177 13.4652 15.4201 14.6683C15.0713 15.2698 14.7326 15.8714 14.3839 16.4729C14.0907 16.9784 13.8329 17.5041 13.2768 17.7721C12.8117 17.9945 12.2456 18.0147 11.7704 17.8125C11.2497 17.5951 10.9616 17.1857 10.7038 16.7105C10.0466 15.5023 9.32881 14.3195 8.63627 13.1265C8.28242 12.5148 7.92856 11.9082 7.57471 11.2965C7.28152 10.7809 6.96305 10.2956 7.00349 9.67893C7.10459 8.37979 8.53011 7.62153 9.68266 8.19275C10.3145 8.50616 10.6077 9.2442 10.9414 9.82047C11.3357 10.5029 11.73 11.1853 12.1242 11.8678C12.2405 12.07 12.3568 12.2671 12.4832 12.4895V12.4845Z" fill="#ED2031"/>
<path d="M35.332 17.8327C34.9629 17.8327 34.5939 17.8327 34.23 17.8327C34.0025 17.8327 33.9823 17.7468 33.8761 17.5597C33.7699 17.3778 33.6638 17.1907 33.5576 17.0087C33.3605 16.665 33.1633 16.3213 32.9611 15.9826C32.769 15.654 32.5315 15.3204 32.3798 14.9716C32.7539 14.9513 33.1431 14.9564 33.5222 14.9665C33.7245 14.9716 33.7447 15.0828 33.8407 15.2496C33.9368 15.4215 34.0278 15.5933 34.1339 15.7551C34.144 15.7551 34.1491 15.7551 34.1592 15.7551C34.422 15.0069 34.4675 14.1122 33.871 13.5005C33.3807 13.0001 32.6326 12.8029 31.9602 12.9849C31.2525 13.177 30.7319 13.7583 30.6308 14.4863C30.5297 15.2091 30.7521 15.9623 31.3637 16.4021C31.7125 16.6498 32.0765 16.6953 32.486 16.7459C32.7033 16.7762 32.7842 17.0542 32.8803 17.2261C33.0066 17.4435 33.133 17.6558 33.2442 17.8782C32.5163 17.9692 31.8086 17.9743 31.1211 17.6912C30.5651 17.4586 30.0545 17.0795 29.7107 16.5841C29.0738 15.6692 29.0132 14.3751 29.5237 13.3893C30.7066 11.1095 34.513 11.1803 35.524 13.5764C35.8172 14.2689 35.8577 15.0777 35.6251 15.7905C35.5139 16.1393 35.337 16.4729 35.1045 16.756C34.9983 16.8874 34.8416 16.9582 34.9225 17.1301C35.0287 17.3424 35.1702 17.5446 35.2915 17.7468C35.3016 17.767 35.3117 17.7923 35.332 17.8226V17.8327Z" fill="#1D417E"/>
<path d="M37.9403 14.5065C38.3448 14.5065 38.7492 14.5065 39.1536 14.5065C39.3659 14.5065 39.4366 14.5166 39.563 14.6885C39.5883 14.7238 39.6439 14.8502 39.6894 14.8654C39.7501 14.8856 39.8259 14.8098 39.8714 14.7744C40.2909 14.4357 40.3263 13.7229 39.9674 13.3236C39.5125 12.8181 38.6228 12.9546 38.0162 12.9546C37.814 12.9546 37.8039 12.9647 37.8039 13.1669C37.8039 13.3792 37.8039 13.5915 37.8039 13.8038C37.8039 14.2284 37.8039 14.648 37.8039 15.0726C37.8039 15.5225 37.8039 15.9775 37.8039 16.4274C37.8039 16.8874 37.8342 17.3626 37.8039 17.8276H36.4036C36.3632 17.1856 36.4036 16.5285 36.4036 15.8865C36.4036 15.2647 36.4036 14.643 36.4036 14.0161C36.4036 13.3944 36.4036 12.7726 36.4036 12.1458C36.4036 12.075 36.3632 11.8829 36.4238 11.8273C36.4896 11.7666 36.7423 11.8121 36.8282 11.8121C37.1417 11.8121 37.45 11.8121 37.7634 11.8121C38.8503 11.8121 40.0938 11.6807 40.9734 12.4491C41.7013 13.086 41.8428 14.279 41.3424 15.0979C41.2059 15.3203 41.034 15.5175 40.8268 15.6691C40.7459 15.7298 40.5184 15.8006 40.4679 15.8814C40.4022 15.9825 40.5386 16.0938 40.6044 16.1847C40.9885 16.7307 41.3727 17.2817 41.7569 17.8327C41.307 17.8327 40.8521 17.8428 40.4022 17.8327C40.1747 17.8327 40.109 17.6355 39.9876 17.4586C39.8461 17.2514 39.7046 17.0441 39.558 16.8419C39.0221 16.0685 38.5166 15.2647 37.9403 14.5267C37.9403 14.5216 37.9505 14.5115 37.9505 14.5065H37.9403Z" fill="#1D417E"/>
<path d="M20.2275 14.7845C20.2275 13.9555 20.2275 13.1214 20.2275 12.2924C20.2275 12.0649 20.3488 11.888 20.551 11.8273C20.6066 11.8122 20.6622 11.8071 20.7178 11.8071C21.8552 11.8071 22.9875 11.8071 24.1249 11.8071C24.4535 11.8071 24.686 12.0447 24.6911 12.3733C24.6911 12.717 24.4687 12.9698 24.135 12.9748C23.2959 12.9799 22.4568 12.9748 21.6176 12.9748C21.5064 12.9748 21.5064 12.9748 21.5064 13.081C21.5064 13.4298 21.5064 13.7735 21.5064 14.1223C21.5064 14.188 21.5266 14.2032 21.5873 14.2032C22.3304 14.2032 23.0785 14.2032 23.8216 14.2032C23.948 14.2032 24.0794 14.2133 24.2008 14.2436C24.4737 14.3144 24.6254 14.5571 24.6052 14.8401C24.5849 15.1182 24.3827 15.3305 24.0997 15.3709C24.0289 15.381 23.9581 15.3861 23.8873 15.3861C23.124 15.3861 22.3557 15.3861 21.5924 15.3861C21.5165 15.3861 21.4963 15.4114 21.4963 15.4821C21.4963 15.8461 21.5064 16.2101 21.5014 16.574C21.5014 16.6448 21.5216 16.665 21.5924 16.665C22.4163 16.665 23.2403 16.665 24.0643 16.665C24.2109 16.665 24.3575 16.6802 24.4939 16.756C24.7012 16.8723 24.7871 17.0593 24.772 17.2868C24.7568 17.5446 24.6254 17.7266 24.3726 17.8074C24.2968 17.8327 24.2109 17.8479 24.135 17.8479C23.0583 17.8479 21.9866 17.8479 20.9099 17.8479C20.6824 17.8479 20.4802 17.7822 20.3387 17.5901C20.278 17.5041 20.2376 17.4132 20.2325 17.307C20.2325 17.1806 20.2224 17.0593 20.2224 16.9329C20.2224 16.2151 20.2224 15.4973 20.2224 14.7795L20.2275 14.7845Z" fill="#ED2032"/>
<path d="M26.4098 15.199C26.4098 14.4863 26.4098 13.7786 26.4098 13.0658C26.4098 12.99 26.3845 12.9698 26.3138 12.9748C26.0206 12.9748 25.7324 12.9849 25.4392 12.9748C25.1107 12.9698 24.8882 12.7221 24.8882 12.3834C24.8882 12.0649 25.1359 11.8071 25.4493 11.8071C25.9953 11.8071 26.5362 11.8071 27.0821 11.8071C27.5876 11.8071 28.0931 11.8071 28.5986 11.8071C28.7452 11.8071 28.8817 11.8476 28.9879 11.9537C29.1648 12.1256 29.2052 12.3379 29.1496 12.5654C29.1041 12.7625 28.9828 12.899 28.7857 12.9496C28.6997 12.9698 28.6087 12.9799 28.5228 12.9799C28.2751 12.9799 28.0274 12.9799 27.7797 12.9799C27.7039 12.9799 27.6837 13.0001 27.6837 13.0759C27.6837 14.3751 27.6837 15.6742 27.6837 16.9734C27.6837 17.12 27.6837 17.2666 27.6584 17.4081C27.5927 17.8125 27.254 17.9389 26.9406 17.8984C26.5817 17.8529 26.4098 17.6204 26.4098 17.2261C26.4098 16.5538 26.4098 15.8815 26.4098 15.2092V15.199Z" fill="#ED2032"/>
<path d="M19.3884 14.8098C19.3884 15.6085 19.3884 16.4072 19.3884 17.2109C19.3884 17.3474 19.3681 17.4789 19.3024 17.6002C19.171 17.8479 18.8728 17.9186 18.6604 17.8883C18.2813 17.8378 18.1145 17.585 18.1145 17.2362C18.1094 15.6237 18.1145 14.0111 18.1145 12.3985C18.1145 12.0649 18.2965 11.8324 18.5998 11.7616C19.0244 11.6656 19.3884 11.9537 19.3884 12.3884C19.3884 13.1922 19.3884 13.9959 19.3884 14.8047V14.8098Z" fill="#ED2032"/>
<path d="M26.7434 22.6047C26.7434 22.1901 26.7637 21.7706 26.7434 21.3611C26.7232 21.0629 26.5362 20.8202 26.2076 20.987C25.874 21.1539 25.9751 21.7301 25.9751 22.0334C25.9751 22.1396 26.0408 22.5187 25.965 22.5946C25.8942 22.6653 25.5656 22.6097 25.4645 22.6097V20.5776C25.5707 20.5776 25.8386 20.527 25.9245 20.5776C25.9953 20.6231 25.9549 20.8051 25.9549 20.8809C26.2885 20.436 26.9507 20.4057 27.2034 20.9416C27.4006 20.5321 28.0375 20.3653 28.3661 20.7242C28.5582 20.9365 28.5582 21.255 28.5633 21.5178C28.5683 21.8717 28.5936 22.2458 28.5582 22.5996H28.0527C28.0527 22.2205 28.0527 21.8414 28.0527 21.4622C28.0527 21.1741 27.9971 20.891 27.6382 20.9416C27.3147 20.987 27.2692 21.2954 27.2641 21.5684C27.2641 21.7554 27.2641 21.9425 27.2641 22.1295C27.2641 22.2205 27.3298 22.6097 27.1933 22.6047C27.0467 22.6047 26.9052 22.6047 26.7485 22.6047H26.7434Z" fill="#212021"/>
<path d="M36.5755 19.6778H37.0962V20.9921C37.4348 20.6939 37.7432 20.3603 38.0566 20.0418C38.1729 19.9255 38.3094 19.7183 38.4711 19.6778C38.6379 19.6323 38.8806 19.6728 39.0575 19.6778C38.5672 20.153 38.092 20.6181 37.6118 21.0831C38.1072 21.5886 38.5975 22.0891 39.1081 22.6047C38.9362 22.6047 38.6632 22.6552 38.5015 22.6047C38.3397 22.5541 38.1628 22.2913 38.0465 22.175C37.7331 21.8616 37.4348 21.528 37.1012 21.2398V22.5996H36.5755V19.6778Z" fill="#212021"/>
<path d="M18.9637 21.5077V22.6047H18.438V19.6829C18.8778 19.6424 19.3378 19.6829 19.7776 19.693C20.1466 19.7031 20.5004 19.8598 20.642 20.2237C20.7633 20.527 20.7128 20.9618 20.4954 21.2145C20.2578 21.4926 19.8837 21.5027 19.545 21.5077C19.353 21.5077 19.1609 21.5077 18.9587 21.5077H18.9637ZM18.9637 21.078C19.2367 21.078 19.4995 21.0882 19.7675 21.078C20.0051 21.0629 20.1466 20.9315 20.182 20.704C20.2275 20.4158 20.1112 20.1479 19.7776 20.1176C19.5097 20.0974 19.2417 20.1075 18.9738 20.1024C18.9738 20.1024 18.9637 20.1075 18.9587 20.1125V21.078H18.9637Z" fill="#212021"/>
<path d="M31.8743 20.8859C32.1927 20.3906 33.047 20.4007 33.2139 21.0123C33.3049 21.346 33.2644 21.7352 33.2644 22.0789C33.2644 22.18 33.32 22.5187 33.2442 22.5895C33.1734 22.6603 32.8448 22.6047 32.7437 22.6047C32.7437 22.2154 32.7589 21.8262 32.7437 21.4369C32.7336 21.169 32.6325 20.9112 32.3191 20.9365C32.0462 20.9567 31.8945 21.1539 31.8793 21.4167C31.8591 21.811 31.9198 22.2154 31.8793 22.6047H31.3536C31.3536 22.1093 31.3536 21.6139 31.3536 21.1185C31.3536 20.9921 31.3536 20.8607 31.3536 20.7343C31.3536 20.618 31.3435 20.5978 31.4598 20.5776C31.5305 20.5675 31.758 20.5473 31.8136 20.5776C31.8996 20.6281 31.8642 20.7747 31.8642 20.8758L31.8743 20.8859Z" fill="#212021"/>
<path d="M21.1475 21.1235C21.0969 21.0072 20.9655 20.8505 21.0565 20.7494C21.1475 20.6483 21.375 20.613 21.5064 20.5776C21.8198 20.5017 22.2192 20.5017 22.4871 20.7141C22.7348 20.9112 22.7348 21.1943 22.7398 21.4875C22.7499 21.8565 22.7449 22.2306 22.7449 22.6046H22.2697V22.3013C22.0422 22.5945 21.7591 22.7159 21.3901 22.6046C21.0565 22.5035 20.8088 22.1446 20.9503 21.7958C21.107 21.4015 21.653 21.4319 22.0018 21.4167C22.2192 21.4066 22.2899 21.4015 22.2293 21.169C22.1888 21.0123 22.0776 20.9415 21.9159 20.9314C21.6378 20.9163 21.3851 20.987 21.1424 21.1336L21.1475 21.1235ZM22.0928 21.6897C22.0928 21.6897 22.0928 21.6745 22.0928 21.6695C21.8956 21.7048 21.4457 21.6846 21.4205 21.9424C21.4002 22.175 21.6176 22.3064 21.8249 22.2963C22.0372 22.2811 22.1989 22.1345 22.2495 21.9323C22.295 21.7605 22.2798 21.6947 22.0978 21.6947L22.0928 21.6897Z" fill="#212021"/>
<path d="M30.2061 21.6948C30.009 21.6948 29.8068 21.6847 29.6096 21.6948C29.4529 21.6999 29.4681 21.7605 29.5237 21.897C29.6248 22.1599 29.8725 22.261 30.1404 22.2559C30.3123 22.2559 30.474 22.2054 30.6257 22.1245C30.6611 22.1043 30.7268 22.0385 30.7723 22.0588C30.8026 22.0689 30.8683 22.2711 30.8734 22.2964C30.9138 22.5491 30.3527 22.6249 30.1707 22.635C29.5085 22.6704 28.9879 22.2357 28.998 21.5583C29.0131 20.9113 29.5743 20.4209 30.2264 20.5524C30.5549 20.6181 30.8026 20.8557 30.8936 21.1792C30.9239 21.2853 31.0099 21.619 30.9189 21.6948C30.8734 21.7352 30.6864 21.6999 30.6257 21.6948C30.4892 21.6948 30.3477 21.6948 30.2112 21.6948C30.2112 21.6948 30.2112 21.6948 30.2112 21.6897L30.2061 21.6948ZM30.5195 21.4067C30.4993 21.3207 30.4842 21.25 30.4639 21.1842C30.3376 20.7849 29.7562 20.8051 29.5641 21.1387C29.5389 21.1842 29.458 21.341 29.4883 21.3915C29.5186 21.4471 29.6754 21.4117 29.7259 21.4117C29.9888 21.4117 30.2516 21.4117 30.5195 21.4117V21.4067Z" fill="#212021"/>
<path d="M23.4526 23.3528C23.5487 23.1354 23.67 22.913 23.7559 22.6906C23.8469 22.4479 23.7003 22.2306 23.6043 22.0132C23.3919 21.5431 23.1796 21.073 22.9926 20.5927C23.0937 20.5624 23.3667 20.5371 23.4728 20.5776C23.5992 20.6281 23.6396 20.8758 23.6851 20.987C23.8216 21.3308 23.9531 21.6745 24.0996 22.0132C24.2361 21.6897 24.3676 21.3611 24.499 21.0325C24.5394 20.9365 24.6001 20.6534 24.6911 20.5927C24.7871 20.527 25.0753 20.5776 25.1865 20.5776C25.0247 21.0679 24.772 21.538 24.5647 22.0132C24.4636 22.2457 24.3575 22.4783 24.2564 22.7159C24.2058 22.8271 24.0592 23.3477 23.9227 23.3528C23.7711 23.3528 23.6245 23.3528 23.4577 23.3528H23.4526Z" fill="#212021"/>
<path d="M33.9115 20.9618C33.8255 20.9618 33.6739 20.9921 33.5981 20.9618C33.502 20.9264 33.5323 20.8759 33.5323 20.7697C33.5323 20.6838 33.5071 20.618 33.5778 20.5776C33.6385 20.5422 33.8357 20.5776 33.9064 20.5776V19.9761C34.0328 19.9761 34.3816 19.9154 34.4372 20.0367C34.4979 20.1732 34.3614 20.426 34.4473 20.5473C34.5029 20.6231 34.8163 20.5725 34.9073 20.5776C35.0135 20.5776 35.0236 20.5624 35.064 20.6534C35.0944 20.7191 35.064 20.886 35.064 20.9618C34.9427 20.9719 34.5231 20.9062 34.4524 20.9972C34.4119 21.0477 34.4473 21.2904 34.4473 21.3561C34.4473 21.4774 34.4473 21.5987 34.4473 21.72C34.4473 21.8717 34.4473 22.0537 34.5686 22.1598C34.7001 22.2761 34.9124 22.2205 35.0691 22.2003C35.0842 22.271 35.1601 22.4732 35.1348 22.5339C35.0994 22.6148 34.9629 22.6249 34.882 22.635C34.6394 22.6754 34.3664 22.635 34.1693 22.4783C34.0025 22.3469 33.9519 22.1447 33.9368 21.9425C33.9165 21.6493 33.9266 21.3561 33.9216 21.0629C33.9216 21.0376 33.9216 21.0073 33.9216 20.9668L33.9115 20.9618Z" fill="#212021"/>
<path d="M40.4679 20.9617C40.3718 20.9617 40.2657 20.9769 40.1747 20.9617C40.0635 20.9415 40.0786 20.9365 40.0786 20.8101C40.0786 20.7444 40.0483 20.6281 40.1039 20.5826C40.1545 20.5422 40.3971 20.5826 40.4628 20.5826V19.9811C40.569 19.9811 40.6802 19.9811 40.7864 19.9811C40.9127 19.9811 40.9582 19.9558 40.9835 20.0771C41.0138 20.2237 40.9077 20.522 41.0644 20.5776C41.1908 20.6231 41.5345 20.4967 41.6002 20.6281C41.6204 20.6686 41.6204 20.8809 41.6002 20.9213C41.5648 20.9971 41.4486 20.9668 41.3727 20.9668C41.2868 20.9668 41.12 20.9365 41.0442 20.9668C40.9683 20.9971 40.9835 21.0174 40.9835 21.1083C40.9784 21.3409 40.9734 21.5835 40.9835 21.8161C41.0088 22.2356 41.2565 22.2407 41.6103 22.1952C41.6305 22.3165 41.6508 22.4328 41.676 22.5541C41.3879 22.6956 40.9532 22.6855 40.7004 22.4732C40.5285 22.3266 40.483 22.1295 40.4729 21.9121C40.4628 21.629 40.4628 21.3409 40.4578 21.0578C40.4578 21.0275 40.4578 20.9971 40.4578 20.9617H40.4679Z" fill="#212021"/>
<path d="M39.7955 20.5776V22.6047H39.2951C39.2698 22.2508 39.285 21.8919 39.285 21.5431C39.285 21.4218 39.2294 20.5776 39.3406 20.5826C39.4922 20.5826 39.6388 20.5826 39.8006 20.5826L39.7955 20.5776Z" fill="#212021"/>
<path d="M39.2445 20.1378C39.2445 20.0317 39.1889 19.7637 39.2445 19.6778C39.3001 19.5919 39.4922 19.6323 39.5782 19.6323C39.7399 19.6323 39.8107 19.5969 39.8259 19.7637C39.8309 19.8244 39.8713 20.1378 39.7702 20.1378C39.5984 20.1378 39.4265 20.1378 39.2395 20.1378H39.2445Z" fill="#212021"/>
<path d="M12.4832 12.4845C12.4832 12.4845 11.0728 14.2538 9.66748 12.6058L7.99931 9.70929C7.99931 9.70929 7.50898 8.07651 9.43495 8.07651C9.43495 8.07651 9.90001 8.20794 10.2943 8.69828C10.4561 8.90049 10.8605 9.58292 11.275 10.3159C11.8664 11.3522 12.4832 12.4845 12.4832 12.4845Z" fill="#A02B21"/>
</svg>
