<svg width="48" height="32" viewBox="0 0 48 32" fill="none" xmlns="http://www.w3.org/2000/svg">
<g clip-path="url(#clip0_2154_675)">
<g clip-path="url(#clip1_2154_675)">
<path d="M43.7014 0.63501H4.29862C4.13451 0.63501 3.97012 0.63501 3.8063 0.635967C3.66783 0.636953 3.52968 0.63849 3.39152 0.64226C3.09022 0.650408 2.78634 0.668185 2.4888 0.72166C2.18651 0.776062 1.90522 0.8648 1.6308 1.00452C1.36102 1.14171 1.11403 1.32116 0.89999 1.53529C0.685856 1.74942 0.506408 1.99601 0.369241 2.26608C0.229494 2.5405 0.140698 2.82188 0.086672 3.1244C0.0329102 3.42202 0.0150147 3.72584 0.00689488 4.02683C0.00318297 4.16498 0.0015909 4.30313 0.000689024 4.44126C-0.000267954 4.60542 5.10388e-05 4.76947 5.10388e-05 4.93393V27.0656C5.10388e-05 27.23 -0.000267954 27.3938 0.000689024 27.5583C0.0015909 27.6964 0.00318297 27.8345 0.00689488 27.9727C0.0150147 28.2734 0.0329102 28.5772 0.086672 28.8748C0.140698 29.1774 0.229494 29.4587 0.369241 29.7331C0.506408 30.0032 0.685856 30.2501 0.89999 30.4639C1.11403 30.6784 1.36102 30.8578 1.6308 30.9947C1.90522 31.1347 2.18651 31.2235 2.4888 31.2779C2.78634 31.331 3.09022 31.3491 3.39152 31.3573C3.52968 31.3604 3.66783 31.3622 3.8063 31.3629C3.97012 31.3642 4.13451 31.3642 4.29862 31.3642H43.7014C43.8652 31.3642 44.0296 31.3642 44.1934 31.3629C44.3316 31.3622 44.4697 31.3604 44.6085 31.3573C44.9092 31.3491 45.213 31.331 45.5113 31.2779C45.8132 31.2235 46.0945 31.1347 46.369 30.9947C46.639 30.8578 46.8853 30.6784 47.0998 30.4639C47.3136 30.2501 47.493 30.0032 47.6305 29.7331C47.7706 29.4587 47.8593 29.1774 47.9131 28.8748C47.9669 28.5772 47.9843 28.2734 47.9925 27.9727C47.9962 27.8345 47.9981 27.6964 47.9987 27.5583C48 27.3938 48 27.23 48 27.0656V4.93393C48 4.76947 48 4.60542 47.9987 4.44126C47.9981 4.30313 47.9962 4.16498 47.9925 4.02683C47.9843 3.72584 47.9669 3.42202 47.9131 3.1244C47.8593 2.82188 47.7706 2.5405 47.6305 2.26608C47.493 1.99601 47.3136 1.74942 47.0998 1.53529C46.8853 1.32116 46.639 1.14171 46.369 1.00452C46.0945 0.8648 45.8132 0.776062 45.5113 0.72166C45.213 0.668185 44.9092 0.650408 44.6085 0.64226C44.4697 0.63849 44.3316 0.636953 44.1934 0.635967C44.0296 0.63501 43.8652 0.63501 43.7014 0.63501Z" fill="black"/>
<path d="M43.7014 1.65927L44.1862 1.66019C44.3175 1.66112 44.4488 1.66254 44.5808 1.66614C44.8105 1.67234 45.0792 1.68478 45.3296 1.72968C45.5473 1.76888 45.7299 1.82851 45.9051 1.91771C46.0781 2.0056 46.2366 2.12079 46.3749 2.25897C46.5139 2.39808 46.6292 2.55682 46.7182 2.73172C46.8069 2.90557 46.8662 3.08728 46.9052 3.30657C46.9499 3.55428 46.9623 3.82369 46.9686 4.05478C46.9722 4.18522 46.9739 4.31566 46.9745 4.4492C46.9758 4.6107 46.9758 4.77211 46.9758 4.93393V27.0656C46.9758 27.2274 46.9758 27.3885 46.9745 27.5534C46.9739 27.6839 46.9722 27.8143 46.9686 27.945C46.9623 28.1757 46.9499 28.445 46.9046 28.6956C46.8662 28.9119 46.807 29.0936 46.7178 29.2684C46.629 29.4428 46.5138 29.6014 46.3755 29.7396C46.2364 29.8788 46.0784 29.9937 45.9034 30.0824C45.7295 30.1711 45.5472 30.2307 45.3316 30.2695C45.0761 30.315 44.7962 30.3276 44.5854 30.3333C44.4527 30.3363 44.3207 30.338 44.1855 30.3387C44.0243 30.3399 43.8626 30.3399 43.7014 30.3399H4.29864C4.29649 30.3399 4.2944 30.3399 4.29223 30.3399C4.1329 30.3399 3.97326 30.3399 3.81104 30.3387C3.67877 30.338 3.5468 30.3363 3.4192 30.3334C3.20356 30.3276 2.92346 30.3151 2.67003 30.2698C2.45263 30.2307 2.27036 30.1711 2.09416 30.0812C1.92078 29.9933 1.76293 29.8786 1.62371 29.7391C1.48556 29.6012 1.37075 29.4431 1.28198 29.2684C1.19313 29.0938 1.13368 28.9115 1.09459 28.6927C1.04941 28.4425 1.03699 28.1744 1.03079 27.9452C1.02725 27.814 1.02577 27.6828 1.02493 27.5523L1.02429 27.1672L1.02432 27.0656V4.93393L1.02429 4.83225L1.0249 4.44798C1.02577 4.31676 1.02725 4.18557 1.03079 4.05446C1.03699 3.82505 1.04941 3.55675 1.09496 3.30451C1.13371 3.08763 1.19313 2.90534 1.28244 2.72992C1.37051 2.55653 1.48553 2.39825 1.62441 2.25941C1.76273 2.12102 1.9211 2.00598 2.09559 1.91724C2.2699 1.82848 2.45251 1.76888 2.66992 1.72976C2.92041 1.68476 3.18927 1.67234 3.41952 1.66611C3.55077 1.66254 3.68202 1.66112 3.81229 1.66022L4.29864 1.65927H43.7014Z" fill="white"/>
<path d="M13.1036 10.9705C13.5146 10.4565 13.7935 9.76623 13.72 9.0609C13.1183 9.09081 12.3841 9.45781 11.9591 9.97228C11.5774 10.4128 11.2396 11.132 11.3277 11.8077C12.0031 11.8663 12.6778 11.4702 13.1036 10.9705Z" fill="black"/>
<path d="M13.7123 11.9397C12.7315 11.8813 11.8976 12.4963 11.4293 12.4963C10.9606 12.4963 10.2434 11.9691 9.46763 11.9833C8.45794 11.9982 7.52107 12.569 7.00869 13.477C5.95482 15.2934 6.73058 17.9878 7.75541 19.4671C8.25309 20.199 8.85288 21.0049 9.64319 20.9759C10.3899 20.9466 10.6826 20.4924 11.5903 20.4924C12.4973 20.4924 12.7609 20.9759 13.5513 20.9613C14.371 20.9466 14.8835 20.229 15.3812 19.4964C15.9521 18.6621 16.1858 17.8565 16.2005 17.8123C16.1858 17.7977 14.6199 17.1969 14.6054 15.3956C14.5906 13.8874 15.8348 13.17 15.8934 13.1255C15.1908 12.0863 14.0929 11.9691 13.7123 11.9397Z" fill="black"/>
<path d="M22.2523 9.8985C24.384 9.8985 25.8684 11.3679 25.8684 13.5073C25.8684 15.6543 24.3534 17.1313 22.1988 17.1313H19.8386V20.8848H18.1333V9.89849L22.2523 9.8985ZM19.8386 15.7H21.7952C23.2799 15.7 24.1249 14.9006 24.1249 13.5149C24.1249 12.1293 23.2799 11.3375 21.8029 11.3375H19.8386V15.7Z" fill="black"/>
<path d="M26.314 18.6084C26.314 17.2074 27.3875 16.3471 29.291 16.2405L31.4835 16.1111V15.4945C31.4835 14.6037 30.882 14.0708 29.8772 14.0708C28.9253 14.0708 28.3314 14.5275 28.1869 15.2432H26.6338C26.7252 13.7966 27.9584 12.7307 29.938 12.7307C31.8794 12.7307 33.1203 13.7585 33.1203 15.365V20.8848H31.5443V19.5676H31.5064C31.0421 20.4585 30.0294 21.0218 28.9788 21.0218C27.4104 21.0218 26.314 20.0473 26.314 18.6084ZM31.4835 17.8851V17.2532L29.5116 17.375C28.5294 17.4435 27.9737 17.8775 27.9737 18.5627C27.9737 19.2631 28.5523 19.7199 29.4355 19.7199C30.5851 19.7199 31.4835 18.9281 31.4835 17.8851Z" fill="black"/>
<path d="M34.6082 23.8312V22.4988C34.7298 22.5292 35.0039 22.5292 35.141 22.5292C35.9023 22.5292 36.3135 22.2095 36.5646 21.3873C36.5646 21.372 36.7094 20.9 36.7094 20.8924L33.8164 12.8754H35.5977L37.6231 19.3926H37.6534L39.6788 12.8754H41.4146L38.4147 21.3035C37.7298 23.245 36.9379 23.8693 35.2782 23.8693C35.141 23.8693 34.7298 23.854 34.6082 23.8312Z" fill="black"/>
</g>
</g>
<defs>
<clipPath id="clip0_2154_675">
<rect width="48" height="32" fill="white"/>
</clipPath>
<clipPath id="clip1_2154_675">
<rect width="48" height="30.7292" fill="white" transform="translate(0 0.63501)"/>
</clipPath>
</defs>
</svg>
