<svg width="48" height="32" viewBox="0 0 48 32" fill="none" xmlns="http://www.w3.org/2000/svg">
<path d="M0 4C0 1.79086 1.79086 0 4 0H44C46.2091 0 48 1.79086 48 4V28C48 30.2091 46.2091 32 44 32H4C1.79086 32 0 30.2091 0 28V4Z" fill="#F6CC00"/>
<path fill-rule="evenodd" clip-rule="evenodd" d="M6.005 22.1703C9.03257 23.8726 13.0536 22.4662 14.9863 19.029C15.3507 18.3808 15.6149 17.7067 15.7833 17.0281L15.755 17.8883C16.9604 20.058 19.7086 20.8777 21.4925 19.5759C21.9265 20.2991 24.4819 20.1062 24.8194 19.2383C27.0373 20.6366 28.8694 20.0098 30.0266 19.383C31.8105 20.4437 33.4981 20.2509 34.7034 19.4312C34.7999 19.7687 36.0373 20.1062 36.5838 20.058C36.2463 21.1187 36.1981 22.2364 39.2838 22.517C41.8306 22.7485 42.9568 19.4596 44.1206 16.0607C44.3762 15.3141 44.6338 14.5621 44.9085 13.841C44.9821 13.648 45.0219 13.4395 44.9875 13.2358C44.5855 10.8558 41.1488 11.5297 40.7785 12.8258C40.2481 11.9097 38.8178 11.6847 37.8856 11.765C37.741 9.16144 33.6427 10.5115 33.7391 11.8615C31.5212 11.2347 30.2677 12.1508 29.6891 12.7776C28.773 11.5722 26.989 11.4758 26.3623 11.7168C27.3748 8.39 21.4925 8.10071 20.7211 12.0061C18.8311 10.9647 16.4782 12.199 15.8996 13.5008L15.887 13.884C15.5571 12.1337 14.5649 10.6008 13.0038 9.72301C9.97627 8.02068 5.95522 9.42708 4.02253 12.8643C2.08987 16.3015 2.97745 20.4679 6.005 22.1703Z" fill="#F6CC00"/>
<path fill-rule="evenodd" clip-rule="evenodd" d="M12.8075 19.3626C10.4912 21.5029 7.16835 21.6741 5.38568 19.7449C3.60301 17.8158 4.03556 14.5168 6.3518 12.3764C8.66804 10.2361 11.9909 10.0649 13.7736 11.994C15.5562 13.9232 15.1237 17.2222 12.8075 19.3626ZM10.0554 11.2953C10.1938 11.2891 10.3081 11.4023 10.3033 11.5408L10.275 12.3562C10.6484 12.4236 10.9932 12.5565 11.2592 12.7038L11.2627 12.7057C11.5071 12.8415 11.6147 13.1282 11.5339 13.3848C11.5223 13.4215 11.5069 13.4576 11.4875 13.4925C11.3517 13.7369 11.0651 13.8445 10.8084 13.7636C10.7717 13.7521 10.7357 13.7367 10.7008 13.7173L10.6989 13.7162C10.484 13.5974 10.0988 13.484 9.70325 13.4687C9.68451 13.4697 9.66593 13.471 9.64753 13.4728C9.48078 13.4889 9.34823 13.5373 9.24655 13.6124C9.14893 13.6844 9.04752 13.8044 8.97524 14.0213C8.93193 14.1512 8.94889 14.2509 9.02624 14.3705C9.11912 14.5142 9.29603 14.6727 9.55547 14.8344C9.94274 15.0757 10.3638 15.2422 10.7098 15.379H10.7098L10.7098 15.3791L10.7099 15.3791L10.7099 15.3791C10.8441 15.4322 10.9669 15.4807 11.0721 15.5275C11.2496 15.6064 11.4477 15.7555 11.6172 15.9243C11.7932 16.0995 11.9819 16.3386 12.1051 16.627C12.2305 16.9207 12.2953 17.2865 12.179 17.6756C12.0628 18.0642 11.7893 18.3981 11.3862 18.6732C11.0232 18.9209 10.6239 19.0422 10.2259 19.0849C10.2318 19.1605 10.226 19.2546 10.2193 19.3612C10.2137 19.4523 10.2075 19.5527 10.2075 19.6589C10.9312 19.4266 11.6274 19.01 12.2772 18.4096C14.1611 16.3803 15.029 13.4874 12.1032 11.5055L12.1361 11.4624C15.4629 13.2464 14.5469 17.1518 12.4253 18.9328C11.4194 19.8623 10.292 20.3816 9.10884 20.4662C8.97039 20.4725 8.85607 20.3593 8.86089 20.2207L8.90317 19.0051C8.70343 18.9706 8.51273 18.9242 8.33696 18.8734L8.1898 18.8308L8.01007 18.7904C7.95845 18.7787 7.91 18.7606 7.86542 18.7368L7.6869 18.6851C7.37996 18.5963 7.20316 18.2755 7.29201 17.9685C7.38087 17.6616 7.70172 17.4848 8.00866 17.5737L8.47795 17.7095L9.1188 17.8537C9.19348 17.8705 9.26701 17.8852 9.33925 17.8976C9.77949 17.9394 10.1556 17.8702 10.4265 17.6606C10.6263 17.506 10.6758 17.3866 10.6899 17.3239C10.7049 17.2569 10.6976 17.1725 10.6466 17.0622C10.5942 16.9488 10.5064 16.8337 10.4067 16.736C10.3582 16.6886 10.3119 16.6502 10.2734 16.6222C10.2404 16.5982 10.2209 16.5875 10.2166 16.5851C10.2155 16.5845 10.2154 16.5845 10.2164 16.5849C10.169 16.5638 10.0935 16.5341 9.99802 16.4964H9.99801C9.65317 16.3604 9.04728 16.1215 8.55771 15.8164C8.23582 15.6158 7.8951 15.3489 7.66873 14.9987C7.42685 14.6246 7.32292 14.1618 7.49175 13.6553C7.74739 12.8884 8.34471 12.5234 8.94593 12.3831C8.95127 12.2966 8.95674 12.2021 8.95674 12.1026C8.23297 12.3349 7.5368 12.7515 6.88704 13.3519C5.00311 15.3812 4.13525 18.2741 7.06102 20.256L7.02814 20.2991C3.70131 18.5151 4.61739 14.6097 6.73893 12.8287C7.74477 11.8992 8.87222 11.3798 10.0554 11.2953ZM24.3219 10.7002C23.2717 10.5951 22.3605 11.4198 22.3605 12.4752V12.7294V13.3079H21.3962L21.7819 14.2722H22.3605V18.4187H23.4212V14.2722H24.4819L24.8676 13.3079H23.4212V12.7294V12.4752C23.4212 12.0474 23.7906 11.713 24.2164 11.7556L24.7667 11.8106L24.9641 10.849L24.3219 10.7002ZM18.0329 16.3455H21.3258V15.8151C21.3258 15.1427 21.1705 14.4903 20.8043 13.9913C20.4235 13.4723 19.8445 13.1633 19.119 13.1633C18.3934 13.1633 17.8145 13.4723 17.4337 13.9913C17.0674 14.4903 16.9122 15.1427 16.9122 15.8151C16.9122 17.1582 17.7648 18.4898 19.0812 18.5148C19.8976 18.6177 20.8263 18.3418 21.2836 18.1276L20.8337 17.167C20.4743 17.3353 19.7401 17.5365 19.1927 17.4596L19.1561 17.4544H19.119C18.7 17.4544 18.2024 17.0565 18.0329 16.3455ZM18.2888 14.6188C18.1671 14.7847 18.0729 15.0091 18.0202 15.2847H20.2178C20.165 15.0091 20.0708 14.7847 19.9491 14.6188C19.7714 14.3766 19.5122 14.224 19.119 14.224C18.7257 14.224 18.4665 14.3766 18.2888 14.6188ZM29.3294 16.3937H26.0366C26.2061 17.1047 26.7037 17.5026 27.1227 17.5026H27.1598L27.1964 17.5078C27.7438 17.5847 28.478 17.3836 28.8374 17.2152L29.2873 18.1758C28.8299 18.39 27.9012 18.666 27.0849 18.563C25.7685 18.538 24.9159 17.2064 24.9159 15.8633C24.9159 15.1909 25.0711 14.5385 25.4373 14.0395C25.8181 13.5205 26.3971 13.2115 27.1227 13.2115C27.8482 13.2115 28.4272 13.5205 28.808 14.0395C29.1742 14.5385 29.3294 15.1909 29.3294 15.8633V16.3937ZM26.0238 15.333C26.0766 15.0573 26.1708 14.8329 26.2925 14.667C26.4702 14.4248 26.7294 14.2722 27.1227 14.2722C27.5159 14.2722 27.7751 14.4248 27.9528 14.667C28.0745 14.8329 28.1687 15.0573 28.2215 15.333H26.0238ZM30.9909 15.9115C30.9909 15.3856 31.1145 14.9774 31.3068 14.7152C31.4846 14.473 31.8106 14.158 32.137 14.1276C32.3378 14.1276 32.5872 14.1321 32.8191 14.158C33.0728 14.1864 33.7784 14.4811 33.8304 14.5133V13.5557C33.5619 13.3893 33.2074 13.327 32.937 13.2967C32.6447 13.2641 32.3475 13.2597 32.137 13.2597C31.4115 13.2597 30.8325 13.5688 30.4517 14.0877C30.0855 14.5867 29.9302 15.2392 29.9302 15.9115C29.9302 17.2546 30.7828 18.5862 32.0992 18.6112C32.9156 18.7142 33.6675 18.44 34.1249 18.2259L33.8517 17.2634C33.4923 17.4318 32.7581 17.6329 32.2108 17.556L32.1741 17.5508H32.137C31.6231 17.5508 30.9909 16.9522 30.9909 15.9115ZM42.0668 13.8579C42.1491 13.5395 42.1768 13.3633 42.1768 13.3079H43.3339C43.3339 13.4346 43.275 13.5947 43.2111 13.7687V13.7688L43.211 13.7688C43.169 13.8829 43.1249 14.003 43.0936 14.1236C43.0095 14.449 42.8913 14.8438 42.7528 15.272C42.4754 16.1292 42.1098 17.1406 41.7535 18.0362C41.3886 18.9534 40.9793 19.8985 40.3973 20.4811C40.0913 20.7872 39.7142 21.0187 39.2517 21.0802C38.793 21.1412 38.511 21.0261 38.0233 20.7678L38.3266 19.8303C38.6813 20.0181 38.9323 20.0526 39.1118 20.0287C39.2876 20.0053 39.461 19.9172 39.6469 19.7312C39.9688 19.409 40.2508 18.876 40.5457 18.1854L40.4917 18.2109L38.7234 14.4588C38.6836 14.3743 38.5987 14.3204 38.5053 14.3204H36.2946V17.1651C36.2946 17.3248 36.3352 17.3984 36.36 17.4296C36.3841 17.4598 36.4275 17.4937 36.5175 17.5114C36.7179 17.5508 37.0803 17.488 37.491 17.2087L38.0875 18.0858C37.5339 18.4623 36.8838 18.6646 36.3127 18.5522C36.0169 18.4939 35.735 18.3476 35.53 18.0901C35.3258 17.8335 35.2338 17.5117 35.2338 17.1651V14.3204H34.3178V13.2597H35.2338V12.199L36.2946 11.8133V13.2597H38.5053C39.0094 13.2597 39.4681 13.5506 39.6829 14.0066L41.0517 16.9111C41.3039 16.2427 41.547 15.5527 41.7435 14.9455C41.8785 14.5283 41.9898 14.1553 42.0668 13.8579Z" fill="black"/>
<path fill-rule="evenodd" clip-rule="evenodd" d="M44 1H4C2.34315 1 1 2.34315 1 4V28C1 29.6569 2.34315 31 4 31H44C45.6569 31 47 29.6569 47 28V4C47 2.34315 45.6569 1 44 1ZM4 0C1.79086 0 0 1.79086 0 4V28C0 30.2091 1.79086 32 4 32H44C46.2091 32 48 30.2091 48 28V4C48 1.79086 46.2091 0 44 0H4Z" fill="black" fill-opacity="0.1"/>
</svg>
