<svg width="48" height="32" viewBox="0 0 48 32" fill="none" xmlns="http://www.w3.org/2000/svg">
<path d="M0 3C0 1.34315 1.34315 0 3 0H45C46.6569 0 48 1.34315 48 3V29C48 30.6569 46.6569 32 45 32H3C1.34315 32 0 30.6569 0 29V3Z" fill="#00B14F"/>
<path d="M14.8955 12.5168C14.6879 12.4096 14.5243 12.3132 14.35 12.2369C13.1915 11.7289 11.9607 11.5174 10.6935 11.6568C8.63223 11.8836 7.14605 12.8736 6.34633 14.6456C5.99174 15.431 5.92885 16.2609 6.05842 17.108C6.23533 18.2638 6.78124 19.2337 7.73098 20.0098C8.54282 20.6732 9.50544 21.0193 10.5825 21.1261C11.5053 21.2173 12.3963 21.1112 13.2415 20.7661C14.2098 20.3711 14.8398 19.6887 15.1793 18.7725C15.4376 18.0748 15.4202 17.3549 15.4035 16.635C15.4024 16.591 15.3285 16.5327 15.274 16.5098C15.2213 16.488 15.1501 16.5029 15.0872 16.5029C13.9075 16.5029 12.7274 16.5029 11.5477 16.5029C11.3639 16.5029 11.2718 16.4165 11.2716 16.2435C11.2716 16.1281 11.2814 16.0119 11.2693 15.8974C11.2515 15.7338 11.3121 15.6797 11.4989 15.6807C12.7733 15.688 14.0477 15.6845 15.3225 15.6845C15.5873 15.6845 15.8525 15.687 16.1173 15.6835C16.218 15.6821 16.2737 15.7126 16.2714 15.8108C16.2521 16.6919 16.3495 17.5789 16.1495 18.4511C15.7377 20.2456 14.5898 21.4375 12.6138 21.8349C10.5863 22.2423 8.69739 21.9122 7.07824 20.6607C6.00349 19.8298 5.37727 18.7469 5.11966 17.4884C4.80902 15.9696 5.09845 14.5471 6.04364 13.2634C7.03202 11.921 8.4341 11.1297 10.1726 10.8783C11.4796 10.6889 12.7767 10.7677 14.0128 11.2521C14.2833 11.3582 14.5356 11.5042 14.7917 11.6394C14.8383 11.6641 14.8895 11.7244 14.8914 11.7702C14.9012 12.0056 14.8959 12.2418 14.8959 12.5178L14.8955 12.5168Z" fill="white"/>
<path d="M28.748 20.737C28.748 20.9738 28.7583 21.1989 28.7416 21.4226C28.7367 21.4871 28.6692 21.5679 28.6056 21.6057C28.176 21.8595 27.6945 21.9607 27.1891 21.9791C25.8742 22.0266 24.7119 21.6736 23.7482 20.8438C22.9931 20.1936 22.5594 19.3759 22.384 18.4483C22.2108 17.5328 22.2877 16.6347 22.6935 15.7719C23.3375 14.4036 24.4463 13.5283 26.045 13.2377C27.5149 12.9707 28.884 13.219 30.0554 14.1206C30.8945 14.7663 31.373 15.611 31.5438 16.5945C31.6067 16.9565 31.6204 17.3286 31.623 17.6962C31.6321 18.9716 31.623 20.2467 31.6306 21.5221C31.6317 21.6906 31.5775 21.7492 31.3961 21.7347C31.2457 21.7225 31.0926 21.7222 30.9422 21.7347C30.7547 21.7503 30.6933 21.6941 30.6945 21.5145C30.7028 20.1929 30.6983 18.8714 30.699 17.5498C30.699 16.9842 30.6047 16.4332 30.3448 15.9183C29.8235 14.8859 28.9371 14.2739 27.718 14.0665C26.8179 13.9132 25.9613 14.0342 25.1623 14.4462C24.2202 14.9317 23.622 15.67 23.3848 16.626C23.106 17.7496 23.2458 18.828 23.9785 19.799C24.5183 20.5147 25.2862 20.9145 26.2064 21.0845C27.0588 21.2419 27.8718 21.1469 28.637 20.7581C28.6533 20.7498 28.6707 20.7422 28.6885 20.7373C28.6995 20.7342 28.7124 20.7366 28.748 20.7366V20.737Z" fill="white"/>
<path d="M14.8955 13.9299C14.6515 13.8009 14.4648 13.6955 14.272 13.6011C13.0733 13.0158 11.7978 12.8289 10.4631 13.0376C8.94439 13.2752 7.72946 14.5232 7.57755 15.9373C7.48057 16.8417 7.65672 17.6851 8.20338 18.4455C8.72012 19.1651 9.46263 19.5999 10.3855 19.7549C11.3405 19.9155 12.2603 19.8316 13.0782 19.3027C13.5397 19.0045 13.8363 18.6005 13.9113 18.0762C13.939 17.8824 13.9151 17.8529 13.6976 17.8525C12.9657 17.8508 12.2338 17.847 11.5019 17.855C11.3174 17.8571 11.2549 17.8012 11.2678 17.6365C11.2807 17.4701 11.2731 17.3019 11.2704 17.1347C11.2689 17.0411 11.3087 17.0005 11.4159 17.0005C12.5198 17.0026 13.6241 17.0005 14.7281 17.0071C14.7747 17.0071 14.8588 17.081 14.8614 17.1233C14.9289 18.2583 14.6372 19.2622 13.5961 19.9904C13.0904 20.3441 12.5062 20.5206 11.8902 20.6049C10.9534 20.7332 10.0358 20.6434 9.1751 20.2702C7.82985 19.6873 6.99528 18.7132 6.66455 17.3896C6.41187 16.3788 6.50885 15.3894 7.02558 14.4601C7.5802 13.4628 8.4447 12.7685 9.60091 12.3881C10.5711 12.0691 11.5602 12.0587 12.5619 12.2338C13.2851 12.3604 13.9727 12.5712 14.6144 12.9072C14.8148 13.012 14.9326 13.1257 14.8997 13.3542C14.8747 13.5273 14.8948 13.7059 14.8948 13.9292L14.8955 13.9299Z" fill="white"/>
<path d="M33.9085 18.6734C34.1783 19.542 34.6931 20.1936 35.4886 20.6416C37.2449 21.6306 39.4827 21.1521 40.4673 19.61C41.367 18.2007 41.3454 16.7699 40.3768 15.3988C39.7907 14.5693 38.8917 14.1466 37.8196 14.0311C36.7634 13.9174 35.822 14.1747 34.9859 14.7611C34.4071 15.1671 33.9275 15.6658 33.482 16.1905C33.0569 16.6912 32.6409 17.1982 32.2208 17.7024C32.2034 17.7235 32.1829 17.7423 32.1409 17.7863C32.1409 17.3761 32.1397 16.9971 32.1428 16.618C32.1428 16.5809 32.1651 16.5397 32.1894 16.5081C32.8148 15.6977 33.4251 14.8752 34.2548 14.2201C35.02 13.6157 35.9001 13.2537 36.9184 13.1781C38.3034 13.0754 39.5335 13.4038 40.5514 14.2825C41.3292 14.9539 41.7694 15.7952 41.9319 16.762C42.0736 17.6046 41.994 18.4265 41.6951 19.233C41.1079 20.8167 39.4842 21.9177 37.6567 21.9809C36.4051 22.0239 35.2905 21.7111 34.3453 20.9464C33.885 20.574 33.5411 20.1225 33.3175 19.5975C33.2948 19.5441 33.2774 19.4609 33.3066 19.422C33.4914 19.1776 33.6899 18.9418 33.9081 18.6734H33.9085Z" fill="white"/>
<path d="M35.0647 17.2793C35.095 17.9947 35.278 18.6151 35.7807 19.1228C36.391 19.739 37.1472 19.9862 38.0344 19.7612C38.8959 19.5427 39.371 18.9754 39.5649 18.1979C39.7055 17.633 39.6831 17.0734 39.4191 16.5393C38.9001 15.4903 37.5908 15.0364 36.4312 15.4896C35.8929 15.7001 35.4765 16.0556 35.1181 16.4585C34.2233 17.4645 33.3516 18.4875 32.4727 19.5049C32.3682 19.6263 32.2769 19.7574 32.1583 19.9117C32.1496 19.8402 32.1409 19.799 32.1405 19.7577C32.139 19.55 32.1663 19.3388 32.1344 19.1353C32.0666 18.7032 32.2651 18.3776 32.5462 18.0551C33.1202 17.3972 33.6589 16.7137 34.2347 16.0573C34.7814 15.4342 35.4186 14.9067 36.2679 14.6411C37.5359 14.2444 39.0338 14.5433 39.882 15.5639C40.3074 16.076 40.5287 16.6635 40.5741 17.3085C40.631 18.1133 40.4344 18.8561 39.9237 19.5146C39.399 20.1915 38.672 20.5605 37.7681 20.6545C36.0637 20.832 34.6382 19.62 34.3684 18.3099C34.3567 18.2531 34.3552 18.1761 34.3874 18.1334C34.5984 17.8557 34.8204 17.5845 35.064 17.2793H35.0647Z" fill="white"/>
<path d="M28.748 19.3652C28.748 19.6391 28.7545 19.8756 28.7435 20.1118C28.7408 20.1679 28.6946 20.2484 28.6431 20.2734C26.7819 21.1732 24.5054 20.5303 23.9186 18.5676C23.6402 17.6365 23.7103 16.7221 24.2505 15.8756C24.7634 15.0721 25.5514 14.6251 26.5576 14.5062C27.546 14.3897 28.4362 14.5981 29.1829 15.2206C29.7743 15.7133 30.0937 16.3451 30.1455 17.0636C30.1978 17.7874 30.1815 18.5156 30.1868 19.2417C30.1925 20.0091 30.1849 20.7765 30.191 21.5439C30.1921 21.6837 30.1516 21.7444 29.9906 21.7347C29.8273 21.7246 29.6618 21.7229 29.4989 21.735C29.3193 21.7485 29.2613 21.6944 29.2621 21.5238C29.2697 20.2141 29.2727 18.9043 29.261 17.5945C29.2587 17.3154 29.2178 17.031 29.1481 16.7592C28.948 15.9817 28.1464 15.379 27.2725 15.3218C26.2004 15.2518 25.3859 15.6738 24.9426 16.5643C24.4668 17.5203 24.704 18.734 25.5897 19.3853C26.111 19.7685 26.7129 19.8884 27.3657 19.8219C27.8525 19.7719 28.3131 19.6454 28.748 19.3655V19.3652Z" fill="white"/>
<path d="M23.4208 13.8161C23.2409 13.9895 23.0769 14.1411 22.9215 14.2995C22.8568 14.3654 22.8071 14.3748 22.7136 14.3384C21.5615 13.8935 20.4311 13.9111 19.3491 14.5156C18.6233 14.9213 18.1849 15.532 18.0149 16.2862C17.9326 16.6499 17.9035 17.0286 17.8997 17.401C17.8868 18.7684 17.8948 20.136 17.8944 21.5034C17.8944 21.7312 17.8932 21.7315 17.6425 21.7322C17.4299 21.7329 17.217 21.7322 17.0015 21.7322C16.9939 21.6892 16.9863 21.6674 16.9867 21.6455C16.9901 20.007 16.9359 18.3661 17.0159 16.7307C17.0867 15.2809 17.8243 14.1258 19.3427 13.554C20.6527 13.0605 21.9873 13.0886 23.2663 13.719C23.3204 13.7457 23.3686 13.7825 23.4216 13.8161H23.4208Z" fill="white"/>
<path d="M22.4976 14.8259C22.376 15.0444 22.2601 15.2473 22.1495 15.4529C22.0942 15.5555 22.0169 15.5129 21.9422 15.4872C21.5107 15.3385 21.0732 15.3055 20.6262 15.4241C19.948 15.6041 19.4287 16.1676 19.3578 16.8122C19.337 17.0009 19.3237 17.1913 19.3233 17.3809C19.3203 18.7479 19.3218 20.1149 19.3218 21.4819C19.3218 21.649 19.2278 21.7327 19.0396 21.7329C18.8945 21.7329 18.7494 21.7274 18.6047 21.7343C18.4626 21.7409 18.4183 21.683 18.4187 21.5595C18.4248 19.9852 18.4051 18.4102 18.4395 16.8362C18.4645 15.6963 19.3658 14.7722 20.5856 14.5593C21.2478 14.4438 21.8873 14.4982 22.498 14.8263L22.4976 14.8259Z" fill="white"/>
<path d="M32.7133 15.0042C32.7133 14.0145 32.7133 13.0511 32.7133 12.0882C32.7133 11.4591 32.7197 10.8301 32.7091 10.2014C32.7061 10.0353 32.7671 9.99054 32.9364 10.002C33.1122 10.0138 33.2899 10.011 33.466 10.0027C33.6024 9.99609 33.6377 10.0474 33.6369 10.1646C33.6324 10.7937 33.6346 11.4224 33.6346 12.0514C33.6346 12.6687 33.6384 13.2863 33.6301 13.9035C33.6289 13.9847 33.5831 14.0797 33.5255 14.1435C33.269 14.4271 33.0008 14.7021 32.7141 15.0042H32.7133Z" fill="white"/>
<path d="M34.1627 13.6431C34.1589 13.5758 34.1536 13.5259 34.1533 13.4756C34.1529 12.3867 34.1559 11.2979 34.1495 10.2094C34.1487 10.0544 34.1892 9.98846 34.3699 10.0016C34.5514 10.0152 34.7351 10.0086 34.9177 10.0034C35.0291 10.0003 35.0757 10.0332 35.0753 10.1407C35.0723 11.0912 35.0746 12.0417 35.0708 12.9919C35.0708 13.0418 35.0443 13.1122 35.0034 13.1378C34.7351 13.3067 34.4597 13.4662 34.1627 13.6431Z" fill="white"/>
<path fill-rule="evenodd" clip-rule="evenodd" d="M45 1H3C1.89543 1 1 1.89543 1 3V29C1 30.1046 1.89543 31 3 31H45C46.1046 31 47 30.1046 47 29V3C47 1.89543 46.1046 1 45 1ZM3 0C1.34315 0 0 1.34315 0 3V29C0 30.6569 1.34315 32 3 32H45C46.6569 32 48 30.6569 48 29V3C48 1.34315 46.6569 0 45 0H3Z" fill="black" fill-opacity="0.1"/>
</svg>
