<svg width="48" height="32" viewBox="0 0 48 32" fill="none" xmlns="http://www.w3.org/2000/svg">
<path d="M0 4C0 1.79086 1.79086 0 4 0H44C46.2091 0 48 1.79086 48 4V28C48 30.2091 46.2091 32 44 32H4C1.79086 32 0 30.2091 0 28V4Z" fill="#162888"/>
<path fill-rule="evenodd" clip-rule="evenodd" d="M35.6138 11H36.9744H38.4646H39.8253L43 21.4314H40.1492L39.5971 19.6172H35.842L35.2899 21.4314H32.439L35.6138 11ZM38.9661 17.5439L37.7195 13.4481L36.473 17.5439H38.9661ZM7.68883 11.0648C6.22172 11.0648 5.0324 12.2541 5.0324 13.7212V14.6069C5.0324 16.3602 6.45379 17.7816 8.20716 17.7816H9.17903V17.7921H11.0904V18.7425C11.0904 18.7783 11.0614 18.8073 11.0256 18.8073H7.65644C7.62065 18.8073 7.59165 18.7783 7.59165 18.7425V18.0406H5V18.7425C5 20.2097 6.18933 21.399 7.65644 21.399H11.0256C12.4927 21.399 13.682 20.2096 13.682 18.7425V17.5977C13.682 16.2738 12.6087 15.2005 11.2847 15.2005H9.21142V15.19H8.20716C7.88511 15.19 7.62404 14.9289 7.62404 14.6069V13.7212C7.62404 13.6854 7.65305 13.6564 7.68883 13.6564H10.734C10.7698 13.6564 10.7988 13.6854 10.7988 13.7212V14.4232H13.3905V13.7212C13.3905 12.2541 12.2011 11.0648 10.734 11.0648H7.68883ZM24.7937 11H27.6445H30.8193C32.3579 11 33.6053 12.2473 33.6053 13.786V15.9241C33.6053 17.4628 32.3579 18.7101 30.8193 18.7101H27.6445V21.4314H24.7937V18.7101V11ZM30.7545 15.8593H27.6445V13.8508H30.7545V15.8593Z" fill="white"/>
<path fill-rule="evenodd" clip-rule="evenodd" d="M17.9359 14.2395C18.5689 13.3939 19.5787 12.8465 20.7163 12.8465C21.6841 12.8465 22.5581 13.2415 23.1885 13.8813L24.4345 12.6534C23.4888 11.6937 22.1714 11.0972 20.7163 11.0972C18.5717 11.0972 16.7292 12.3904 15.9261 14.2395H14.7511L13.9736 15.8593H15.516C15.5029 16.0102 15.4962 16.1629 15.4962 16.3172C15.4962 16.4465 15.5009 16.5747 15.5102 16.7016H14.7511L13.9736 18.3214H15.8948C16.6806 20.2097 18.5434 21.5373 20.7163 21.5373C21.8528 21.5373 22.9068 21.1731 23.7645 20.5552L22.7421 19.1357C22.1721 19.5463 21.4737 19.7879 20.7163 19.7879C19.546 19.7879 18.5111 19.2087 17.8824 18.3214H21.7486L22.5261 16.7016H17.2666C17.2527 16.5754 17.2456 16.4471 17.2456 16.3172C17.2456 16.162 17.2558 16.0091 17.2755 15.8593H22.9148L23.6923 14.2395H17.9359Z" fill="#F5C142"/>
<path fill-rule="evenodd" clip-rule="evenodd" d="M44 1H4C2.34315 1 1 2.34315 1 4V28C1 29.6569 2.34315 31 4 31H44C45.6569 31 47 29.6569 47 28V4C47 2.34315 45.6569 1 44 1ZM4 0C1.79086 0 0 1.79086 0 4V28C0 30.2091 1.79086 32 4 32H44C46.2091 32 48 30.2091 48 28V4C48 1.79086 46.2091 0 44 0H4Z" fill="white" fill-opacity="0.1"/>
</svg>
