<?xml version="1.0" encoding="utf-8"?>
<!-- Generator: Adobe Illustrator 27.5.0, SVG Export Plug-In . SVG Version: 6.00 Build 0)  -->
<svg version="1.2" baseProfile="tiny" id="Layer_1" xmlns="http://www.w3.org/2000/svg" xmlns:xlink="http://www.w3.org/1999/xlink"
	 x="0px" y="0px" viewBox="0 0 600 66" overflow="visible" xml:space="preserve">
<g>
	<path fill="#FFFFFF" d="M567,66H340.7c-18.2,0-33-14.8-33-33v0c0-18.2,14.8-33,33-33L567,0c18.2,0,33,14.8,33,33v0
		C600,51.2,585.2,66,567,66z"/>
	<g>
		<path d="M213.3,24.7c-3.5-3.6-8.5-5.4-14.3-5.4c-3.1,0-6,0.5-8.6,1.6c-2.3,0.9-4.3,2.3-6,4c-1.7-1.7-3.6-3-5.9-4
			c-2.5-1-5.4-1.6-8.5-1.6c-5.9,0-10.9,1.9-14.4,5.4c-3.5,3.6-5.4,8.6-5.4,14.5V66h10.5V39.3c0-2.8,0.9-5.3,2.5-7
			c1.7-1.9,4.1-2.9,6.9-2.9c2.6,0,4.8,0.9,6.5,2.6c1.5,1.6,2.5,3.9,2.7,6.4c0,0.3,0,0.6,0,0.9V66h10.6V39.2c0-0.3,0-0.5,0-0.9
			c0.2-2.6,1.1-4.8,2.7-6.4c1.7-1.7,3.9-2.6,6.6-2.6c2.7,0,5.1,1,6.7,2.9c1.6,1.8,2.5,4.3,2.5,7V66h10.5V39.2
			C218.7,33.3,216.8,28.2,213.3,24.7z"/>
		<rect x="104.9" y="0" width="10.5" height="66"/>
		<path d="M138.1,0v13.9h-10.5V0H138.1z M138.1,20.4V66h-10.5V20.4H138.1z"/>
		<path d="M241.3,0v13.9h-10.5V0H241.3z M241.3,20.4V66h-10.5V20.4H241.3z"/>
		<path d="M282.5,30.7H264v21.1c0,2.5,1.5,3.9,4.1,3.9h14.4V66H266c-7.9,0-12.6-4.6-12.6-12.4V0H264v20.4h18.5V30.7z"/>
		<path d="M0,0h10.5v24.6c0,6.7,4.2,12,11.2,12c7.1,0,11.4-5.3,11.4-12V0h10.5v24.7c0,13.4-8.6,22-21.9,22C8.5,46.7,0,38.1,0,24.7V0
			z"/>
		<path d="M93,66H82.4V41.3c0-6.7-4.2-12-11.2-12c-7.1,0-11.4,5.3-11.4,12V66H49.4V41.2c0-13.4,8.6-22,21.9-22
			c13.2,0,21.7,8.6,21.7,22V66z"/>
	</g>
	<g>
		<path d="M376.5,36.8c-0.4,3.2-1.5,6-3.3,8.6c-1.8,2.5-4.1,4.5-6.9,6c-2.9,1.4-6.1,2.2-9.7,2.2c-4,0-7.5-0.9-10.6-2.7
			c-3.1-1.8-5.5-4.3-7.2-7.4c-1.7-3.1-2.5-6.5-2.5-10.3s0.8-7.2,2.5-10.4c1.7-3.2,4.1-5.6,7.2-7.5c3.1-1.8,6.6-2.8,10.6-2.8
			c3.5,0,6.6,0.7,9.5,2.1c2.8,1.4,5.1,3.4,6.9,5.9c1.8,2.5,2.9,5.3,3.4,8.4h-8.7c-0.7-2.4-2-4.4-3.9-5.9c-2-1.5-4.3-2.3-7.1-2.3
			c-2.4,0-4.5,0.6-6.3,1.7c-1.8,1.1-3.2,2.6-4.1,4.5c-1,1.9-1.4,3.9-1.4,6.2c0,2.2,0.5,4.3,1.4,6.2c1,1.9,2.3,3.4,4.1,4.5
			c1.8,1.1,3.9,1.7,6.3,1.7c2.9,0,5.3-0.8,7.3-2.3c2-1.6,3.3-3.6,3.9-6.2H376.5z"/>
		<path d="M381.7,52.7V13.4h20.1c4.1,0,7.3,1,9.8,2.9c2.5,1.9,3.7,4.6,3.7,8.1c0,3.6-1.3,6.4-3.9,8.3v0.2c3.2,0.8,4.8,3.3,4.8,7.3
			v12.6H408v-11c0-0.8-0.2-1.4-0.6-1.8c-0.4-0.4-1-0.6-1.8-0.6H390v13.4H381.7z M401.2,31.7c1.8,0,3.2-0.5,4.3-1.4
			c1.1-0.9,1.6-2.2,1.6-3.8c0-1.6-0.5-2.8-1.6-3.7c-1.1-0.9-2.5-1.4-4.2-1.4H390v10.3H401.2z"/>
		<path d="M446.6,13.4h9.5l-15.7,24.1v15.2H432V37.5l-15.7-24.2h9.6l10.4,16.4L446.6,13.4z"/>
		<path d="M485.8,15.1c2.1,1.2,3.7,2.8,4.9,4.8c1.2,2.1,1.8,4.4,1.8,6.9c0,2.6-0.6,4.9-1.8,7c-1.2,2.1-2.9,3.7-5,4.8
			c-2.1,1.2-4.4,1.7-6.9,1.7h-11.4v12.3h-8.3V13.4h19.7C481.4,13.4,483.7,13.9,485.8,15.1z M478.2,32.4c1.7,0,3.1-0.5,4.2-1.5
			c1.1-1,1.7-2.4,1.7-4.1c0-1.6-0.6-2.9-1.7-3.9c-1.1-1-2.5-1.5-4.2-1.5h-10.7v11H478.2z"/>
		<path d="M494.4,13.4h34.8v8.1h-13.2v31.2h-8.4V21.5h-13.2V13.4z"/>
		<path d="M539.8,50.8c-3.1-1.8-5.6-4.3-7.3-7.4c-1.7-3.1-2.6-6.5-2.6-10.3s0.9-7.2,2.6-10.3c1.7-3.1,4.1-5.6,7.3-7.5
			c3.1-1.9,6.8-2.8,10.9-2.8c4.1,0,7.7,0.9,10.8,2.8c3.2,1.9,5.6,4.4,7.3,7.5c1.7,3.1,2.6,6.6,2.6,10.3s-0.9,7.2-2.6,10.3
			c-1.7,3.1-4.1,5.6-7.3,7.4c-3.1,1.8-6.8,2.7-10.9,2.7C546.6,53.5,542.9,52.6,539.8,50.8z M557.1,43.7c1.8-1.1,3.3-2.6,4.3-4.5
			c1-1.9,1.5-3.9,1.5-6.2c0-2.2-0.5-4.3-1.5-6.2c-1-1.9-2.4-3.4-4.3-4.5c-1.8-1.1-4-1.7-6.5-1.7c-2.5,0-4.6,0.6-6.5,1.7
			c-1.8,1.1-3.3,2.6-4.3,4.5c-1,1.9-1.5,3.9-1.5,6.2c0,2.2,0.5,4.3,1.5,6.2c1,1.9,2.4,3.4,4.3,4.5c1.8,1.1,4,1.7,6.5,1.7
			C553.1,45.4,555.3,44.8,557.1,43.7z"/>
	</g>
</g>
</svg>
